<svg width="32" height="32" viewBox="0 0 32 32" fill="none" xmlns="http://www.w3.org/2000/svg">
<path d="M16.0003 28.1911C15.7664 27.9166 15.4683 27.5607 15.1243 27.1368C14.259 26.0706 13.1064 24.5783 11.9554 22.8723C10.8029 21.1641 9.66112 19.2552 8.80978 17.3549C7.95403 15.4448 7.41699 13.5983 7.41699 12.0001C7.41699 7.25429 11.2545 3.41675 16.0003 3.41675C20.7461 3.41675 24.5837 7.25429 24.5837 12.0001C24.5837 13.5983 24.0466 15.4448 23.1909 17.3549C22.3395 19.2552 21.1978 21.1641 20.0453 22.8723C18.8942 24.5783 17.7417 26.0706 16.8763 27.1368C16.5323 27.5607 16.2342 27.9166 16.0003 28.1911ZM11.917 12.0001C11.917 14.2543 13.7461 16.0834 16.0003 16.0834C18.2545 16.0834 20.0837 14.2543 20.0837 12.0001C20.0837 9.74587 18.2545 7.91675 16.0003 7.91675C13.7461 7.91675 11.917 9.74587 11.917 12.0001Z" stroke="white" stroke-width="1.5"/>
</svg>
