<svg width="26" height="26" viewBox="0 0 26 26" fill="none" xmlns="http://www.w3.org/2000/svg">
<path fill-rule="evenodd" clip-rule="evenodd" d="M4.46875 5.6875C3.79565 5.6875 3.25 6.23315 3.25 6.90625V19.0938C3.25 19.7668 3.79565 20.3125 4.46875 20.3125H21.5312C22.2043 20.3125 22.75 19.7668 22.75 19.0938V6.90625C22.75 6.23315 22.2043 5.6875 21.5312 5.6875H4.46875ZM1.625 6.90625C1.625 5.33569 2.89819 4.0625 4.46875 4.0625H21.5312C23.1018 4.0625 24.375 5.33569 24.375 6.90625V19.0938C24.375 20.6643 23.1018 21.9375 21.5312 21.9375H4.46875C2.89819 21.9375 1.625 20.6643 1.625 19.0938V6.90625Z" fill="white"/>
<path fill-rule="evenodd" clip-rule="evenodd" d="M5.04619 7.62621C5.32168 7.272 5.83216 7.20819 6.18636 7.48369L13 12.7832L19.8137 7.48369C20.1679 7.20819 20.6784 7.272 20.9539 7.62621C21.2294 7.98042 21.1656 8.49089 20.8114 8.76639L13.4989 14.4539C13.2055 14.6821 12.7946 14.6821 12.5012 14.4539L5.18871 8.76639C4.8345 8.49089 4.77069 7.98042 5.04619 7.62621Z" fill="white"/>
</svg>
