<svg width="20" height="20" viewBox="0 0 20 20" fill="none" xmlns="http://www.w3.org/2000/svg">
<g clip-path="url(#clip0_843_497)">
<path d="M18.4864 13.7197L14.5489 12.0322C14.3807 11.9605 14.1937 11.9454 14.0162 11.9892C13.8386 12.0329 13.6801 12.1331 13.5645 12.2748L11.8207 14.4052C9.08409 13.1149 6.88171 10.9126 5.59141 8.17591L7.72187 6.43216C7.86379 6.31674 7.96424 6.15822 8.00801 5.9806C8.05178 5.80298 8.03649 5.61594 7.96445 5.44779L6.27695 1.51029C6.19789 1.32902 6.05806 1.18103 5.88157 1.09182C5.70508 1.00261 5.50299 0.977784 5.31016 1.02161L1.65391 1.86536C1.46799 1.9083 1.30211 2.01298 1.18335 2.16232C1.06459 2.31167 0.999957 2.49686 1 2.68767C1 11.7052 8.30898 19.0002 17.3125 19.0002C17.5034 19.0003 17.6886 18.9357 17.8381 18.8169C17.9875 18.6982 18.0922 18.5322 18.1352 18.3463L18.9789 14.69C19.0225 14.4962 18.9971 14.2933 18.9072 14.1162C18.8173 13.9391 18.6685 13.7989 18.4864 13.7197Z" stroke="white" stroke-width="1.3"/>
</g>
<defs>
<clipPath id="clip0_843_497">
<rect width="20" height="20" fill="white"/>
</clipPath>
</defs>
</svg>
