<svg width="70" height="92" viewBox="0 0 70 92" fill="none" xmlns="http://www.w3.org/2000/svg">
<g id="Capa_1" clip-path="url(#clip0_635_1842)">
<path id="Vector" d="M67.925 22.7719C65.0562 14.9937 59.4525 8.49091 52.1339 4.44727C44.8154 0.40364 36.2688 -0.911874 28.05 0.740225C21.5021 1.992 15.4749 5.12478 10.725 9.74531C7.38282 12.8989 4.7125 16.6796 2.87079 20.8653C1.02908 25.0511 0.0530674 29.5577 0 34.1208C0 34.8362 0 35.5517 0 36.2672C0.29757 38.799 0.910561 41.2849 1.82503 43.6686C3.69996 48.5617 6.0527 53.2632 8.85002 57.7067C16.4912 69.7959 25.1644 81.2191 34.775 91.852C35.025 92.1234 35.125 92.0247 35.325 91.852C39.35 87.3372 43.175 82.6989 46.9 77.962C52.1492 71.3833 56.9753 64.4865 61.35 57.3119C64.1426 52.8041 66.4788 48.036 68.325 43.0765C69.2206 40.6982 69.7679 38.2059 69.95 35.675C70.147 31.2841 69.4586 26.8983 67.925 22.7719ZM35.025 59.3843C30.0805 59.3843 25.2469 57.9374 21.1357 55.2264C17.0245 52.5155 13.8202 48.6624 11.928 44.1542C10.0358 39.6461 9.54074 34.6855 10.5054 29.8997C11.47 25.1139 13.851 20.7179 17.3473 17.2675C20.8436 13.8171 25.2982 11.4674 30.1477 10.5154C34.9972 9.56347 40.0239 10.0521 44.5921 11.9194C49.1602 13.7867 53.0647 16.9489 55.8118 21.0061C58.5588 25.0633 60.025 29.8333 60.025 34.7128C60.0118 41.2476 57.372 47.5102 52.685 52.1264C47.998 56.7425 41.6468 59.335 35.025 59.335V59.3843Z" fill="#0E58EA"/>
<path id="Vector_2" d="M49.8499 43.3725L43.1749 36.7112C43.0442 36.5424 42.8759 36.4056 42.6829 36.3114C42.49 36.2173 42.2776 36.1683 42.0623 36.1683C41.8471 36.1683 41.6348 36.2173 41.4418 36.3114C41.2489 36.4056 41.0806 36.5424 40.9499 36.7112L40.2748 37.3773C40.0998 37.5993 39.9749 37.6487 39.7499 37.3773C39.3502 36.9336 38.9245 36.5135 38.4748 36.1191C38.2748 35.9217 38.2498 35.823 38.4748 35.6009C39.1498 34.9101 39.7999 34.2193 40.4499 33.4792C40.5433 33.3888 40.669 33.3381 40.7999 33.3381C40.9308 33.3381 41.0564 33.3888 41.1499 33.4792C42.6047 34.2292 44.2419 34.5663 45.8793 34.453C47.5167 34.3398 49.0902 33.7806 50.4248 32.8377C52.1265 31.6609 53.3661 29.9419 53.9351 27.9697C54.5042 25.9974 54.3681 23.8919 53.5498 22.007C53.4444 22.1556 53.3274 22.2958 53.1999 22.4264L47.9998 27.5087C47.7748 27.7307 47.6749 27.7554 47.4249 27.5087C45.9999 26.0531 44.5249 24.6221 43.0499 23.1912C42.7749 22.9198 42.8249 22.8211 43.0499 22.5744L48.2999 17.4674C48.5749 17.2207 48.5749 17.122 48.2999 16.9987C46.3783 16.3575 44.2964 16.3575 42.3748 16.9987C41.0567 17.4307 39.8569 18.1564 38.8686 19.1195C37.8802 20.0826 37.1298 21.2572 36.6754 22.5525C36.2209 23.8478 36.0747 25.2289 36.248 26.5889C36.4214 27.9489 36.9096 29.2514 37.6749 30.3953C37.8749 30.6913 37.8999 30.8394 37.6749 31.0614C36.9999 31.5795 36.3499 32.147 35.6999 32.6897C35.0499 33.2325 35.2749 32.9118 35.0249 32.6897C32.1749 29.8607 29.3165 27.0317 26.4498 24.2027C26.2744 24.0241 26.1758 23.7854 26.1749 23.5366C26.1749 22.8458 26.1749 22.155 26.1749 21.4888C26.1855 21.3887 26.1648 21.2878 26.1157 21.1996C26.0665 21.1114 25.9912 21.0402 25.8998 20.9954L20.8998 18.0349C20.8647 17.9975 20.8222 17.9677 20.7749 17.9473C20.7276 17.9269 20.6765 17.9164 20.6249 17.9164C20.5732 17.9164 20.5221 17.9269 20.4748 17.9473C20.4275 17.9677 20.3849 17.9975 20.3498 18.0349C19.6498 18.7503 18.9249 19.4658 18.1999 20.1566C18.1573 20.1936 18.1232 20.2392 18.0999 20.2902C18.0765 20.3413 18.0645 20.3966 18.0645 20.4526C18.0645 20.5087 18.0765 20.564 18.0999 20.6151C18.1232 20.6661 18.1573 20.7116 18.1999 20.7487C19.1999 22.303 20.1749 23.8573 21.1499 25.4116C21.2001 25.5104 21.2797 25.5916 21.378 25.6445C21.4763 25.6974 21.5885 25.7194 21.6999 25.7077H23.7499C23.89 25.6918 24.0319 25.7105 24.1628 25.7622C24.2937 25.8138 24.4095 25.8969 24.4998 26.0037C27.2998 28.7834 30.1165 31.5631 32.9499 34.3427C33.1999 34.6141 33.2249 34.7128 32.9499 34.9595L19.7998 45.8149C19.51 46.0536 19.2726 46.3481 19.1021 46.6805C18.9315 47.0128 18.8315 47.376 18.8081 47.7479C18.7847 48.1197 18.8384 48.4923 18.9659 48.8429C19.0935 49.1936 19.2922 49.5148 19.5499 49.7871L20.4749 50.6752C20.7349 50.9944 21.0642 51.2519 21.4385 51.4288C21.8127 51.6058 22.2224 51.6976 22.6374 51.6976C23.0523 51.6976 23.4621 51.6058 23.8363 51.4288C24.2106 51.2519 24.5398 50.9944 24.7998 50.6752L33.7999 40.9793C34.6999 39.9678 35.6249 38.981 36.5749 37.9694L37.4249 38.8329C37.6999 39.1043 38.1499 39.351 38.1749 39.6471C38.1999 39.9431 37.6999 40.1898 37.4499 40.4612C37.2876 40.5932 37.1568 40.7589 37.0671 40.9466C36.9773 41.1343 36.9307 41.3392 36.9307 41.5468C36.9307 41.7543 36.9773 41.9593 37.0671 42.147C37.1568 42.3347 37.2876 42.5004 37.4499 42.6323L45.8749 51.0453C46.0081 51.2144 46.1787 51.3513 46.3737 51.4454C46.5687 51.5395 46.7828 51.5884 46.9998 51.5884C47.2169 51.5884 47.4311 51.5395 47.6261 51.4454C47.821 51.3513 47.9917 51.2144 48.1249 51.0453L51.5998 47.4433C51.7712 47.3118 51.9099 47.1434 52.0053 46.951C52.1006 46.7586 52.1502 46.5473 52.1502 46.3331C52.1502 46.1189 52.1006 45.9075 52.0053 45.7151C51.9099 45.5227 51.7712 45.3543 51.5998 45.2228L49.8499 43.3725ZM21.7498 49.6144C21.3828 49.6144 21.0305 49.4722 20.7687 49.2185C20.5068 48.9647 20.3564 48.6196 20.3498 48.2574C20.3498 47.8976 20.4947 47.5524 20.7526 47.2979C21.0105 47.0434 21.3602 46.9005 21.7249 46.9005C21.9055 46.9005 22.0843 46.9356 22.2511 47.0038C22.4179 47.072 22.5695 47.1719 22.6972 47.2979C22.8249 47.4239 22.9261 47.5735 22.9952 47.7381C23.0643 47.9028 23.0999 48.0792 23.0999 48.2574C23.0999 48.4356 23.0643 48.6121 22.9952 48.7767C22.9261 48.9413 22.8249 49.0909 22.6972 49.2169C22.5695 49.3429 22.4179 49.4429 22.2511 49.5111C22.0843 49.5793 21.9055 49.6144 21.7249 49.6144H21.7498Z" fill="#0E58EA"/>
</g>
<defs>
<clipPath id="clip0_635_1842">
<rect width="70" height="92" fill="white"/>
</clipPath>
</defs>
</svg>
