<svg width="92" height="91" viewBox="0 0 92 91" fill="none" xmlns="http://www.w3.org/2000/svg">
<g clip-path="url(#clip0_609_1810)">
<path d="M72.2707 74.0164C80.4192 66.5763 84.0693 57.8727 84.7231 47.9133C85.9139 29.8624 73.3136 12.8789 55.9269 8.62514C50.6502 7.33804 49.3271 8.31907 49.2415 13.805C49.1714 18.3726 49.2415 22.9481 49.2415 27.5236C49.2415 30.4824 50.44 32.6093 52.9617 34.3594C62.2543 40.7871 62.122 52.5594 52.6581 58.6182C51.4757 59.2747 50.5066 60.2617 49.8673 61.4605C49.228 62.6593 48.9458 64.0189 49.0547 65.3756C49.1092 71.9131 49.0547 78.4428 48.9847 84.9961C48.9146 90.0817 48.004 90.945 43.0698 91.0078C26.9361 91.2197 9.92299 79.5337 3.65787 63.2251C-3.21431 45.2841 -0.490341 28.8421 12.5458 14.4799C15.2231 11.529 15.1141 11.0032 11.3784 10.0928C9.86851 9.7239 8.31974 9.44921 6.85658 8.94692C6.08717 8.7594 5.41749 8.28336 4.98376 7.61563C4.55003 6.9479 4.38482 6.13863 4.52175 5.35244C4.54514 4.95338 4.64784 4.56315 4.82377 4.20491C4.99969 3.84667 5.24523 3.52775 5.5458 3.26711C5.84638 3.00647 6.19585 2.80943 6.57344 2.6877C6.95104 2.56596 7.34905 2.52202 7.74382 2.55848C13.9508 2.95954 20.0827 4.14879 25.9944 6.09803C27.979 6.75728 28.267 8.86844 28.1113 10.752C27.5137 16.2066 26.5227 21.61 25.1461 26.9193C24.7102 28.8264 23.3872 30.3098 21.2002 29.8467C18.8654 29.3523 18.2895 27.4922 18.4918 25.3183C18.5619 24.5335 18.8109 23.7486 18.842 22.9638C18.842 21.7631 20.1028 20.0835 18.5619 19.4871C17.3244 19.0005 16.3827 20.6721 15.6355 21.661C7.0745 33.0017 4.66963 45.5196 9.59612 58.9636C14.5226 72.4076 24.29 80.4363 38.1588 83.4421C41.1474 84.0857 42.6339 82.7907 42.6573 79.777C42.704 74.2833 42.6573 68.7895 42.7195 63.2958C42.7195 60.7451 41.3809 59.2226 39.264 58.0924C37.3975 57.1473 35.7856 55.7606 34.5659 54.0509C33.3461 52.3413 32.5548 50.3593 32.2595 48.2743C31.8782 45.9669 31.9949 43.5654 34.82 42.9454C37.4895 42.3724 38.4157 44.4601 38.9371 46.6105C39.7154 49.6713 41.2719 51.8217 44.5407 52.3318C46.1488 52.6452 47.8151 52.3649 49.2353 51.5422C50.6555 50.7195 51.735 49.4092 52.2768 47.8505C53.2885 44.8368 51.7865 40.6616 48.471 39.8453C42.595 38.4013 41.9724 34.4615 42.1125 29.4857C42.2993 22.3046 42.167 15.1156 42.2292 7.92665C42.2915 0.933898 43.9648 -0.706369 50.9304 0.149086C68.4649 2.30734 81.0419 11.5682 88.093 27.8768C94.7395 43.2515 92.646 57.9982 83.6179 71.8268C82.1779 73.8476 80.6185 75.7791 78.9483 77.6109C77.5085 79.3297 77.7497 80.3735 80.0145 80.813C81.6741 81.0946 83.3184 81.4614 84.941 81.9118C85.7193 82.07 86.4082 82.5222 86.8668 83.1758C87.3255 83.8294 87.5191 84.6349 87.4081 85.4277C87.3958 85.8617 87.2918 86.288 87.1031 86.6782C86.9144 87.0684 86.6454 87.4136 86.3139 87.6906C85.9825 87.9677 85.5962 88.1702 85.181 88.2848C84.7658 88.3994 84.3311 88.4234 83.9059 88.3551C78.1259 87.6854 72.3589 86.8692 66.6048 85.9065C64.4257 85.5298 63.2972 83.7404 63.5462 81.5272C64.1533 76.0805 64.8615 70.6417 65.702 65.2264C65.9978 63.3507 67.0407 61.5927 69.251 61.7262C71.7959 61.8831 72.1695 63.9864 72.2396 66.027C72.3563 68.4285 72.2785 70.7437 72.2707 74.0164Z" fill="#0E58EA"/>
</g>
<defs>
<clipPath id="clip0_609_1810">
<rect width="92" height="91" fill="white"/>
</clipPath>
</defs>
</svg>
