<svg width="87" height="87" viewBox="0 0 87 87" fill="none" xmlns="http://www.w3.org/2000/svg">
<g id="Capa_1" clip-path="url(#clip0_624_1818)">
<path id="Vector" d="M12.0101 33.51C12.7701 32.73 13.5101 31.96 14.2701 31.21C14.7381 30.758 15.3618 30.5029 16.0124 30.4973C16.663 30.4917 17.291 30.7359 17.7668 31.1797C18.2426 31.6234 18.53 32.2329 18.5697 32.8823C18.6094 33.5317 18.3983 34.1716 17.9801 34.67C15.7001 37.03 13.3801 39.34 10.9801 41.67C10.754 41.8992 10.4847 42.0811 10.1877 42.2054C9.89073 42.3296 9.572 42.3935 9.25009 42.3935C8.92818 42.3935 8.60948 42.3296 8.3125 42.2054C8.01551 42.0811 7.74614 41.8992 7.52008 41.67C5.22675 39.43 2.95675 37.1633 0.710081 34.87C0.476328 34.6316 0.291829 34.3496 0.167082 34.0399C0.0423349 33.7303 -0.0202195 33.3991 -0.0169694 33.0652C-0.0137193 32.7314 0.0552505 32.4015 0.186003 32.0943C0.316756 31.7871 0.506736 31.5087 0.745085 31.275C0.983434 31.0412 1.2655 30.8567 1.57516 30.732C1.88482 30.6072 2.21601 30.5447 2.54983 30.5479C2.88366 30.5512 3.21358 30.6201 3.52075 30.7509C3.82792 30.8817 4.10633 31.0716 4.34009 31.31C5.10009 32.05 5.84009 32.83 6.59009 33.61C6.82009 33.36 6.73008 33.15 6.74008 32.96C6.74008 25.2 6.74008 17.4366 6.74008 9.66998C6.68599 8.1333 7.01834 6.6076 7.70669 5.23265C8.39504 3.8577 9.41739 2.67743 10.6801 1.79997C12.1233 0.715546 13.875 0.119991 15.6801 0.0999756H43.1801C43.8223 0.140411 44.425 0.424042 44.8654 0.893127C45.3059 1.36221 45.5511 1.98151 45.5511 2.62498C45.5511 3.26846 45.3059 3.88776 44.8654 4.35684C44.425 4.82593 43.8223 5.10954 43.1801 5.14998C40.4101 5.14998 37.6401 5.14998 34.8701 5.14998H16.5001C15.5921 5.07701 14.6845 5.29563 13.9094 5.77403C13.1342 6.25243 12.5319 6.96567 12.1901 7.80998C11.9712 8.31493 11.8589 8.85962 11.8601 9.40997V33.12C11.8508 33.1923 11.8596 33.2658 11.8858 33.3339C11.912 33.402 11.9547 33.4625 12.0101 33.51Z" fill="#0E58EA"/>
<path id="Vector_2" d="M79.8898 61.6601V62.1901C79.8898 67.2401 79.8898 72.28 79.8898 77.33C79.8934 79.3138 79.2612 81.2464 78.086 82.8446C76.9108 84.4427 75.2544 85.6222 73.3598 86.2101C72.5313 86.4861 71.6631 86.6246 70.7898 86.6201H55.3598C55.0233 86.624 54.6892 86.5613 54.377 86.4356C54.0648 86.3098 53.7806 86.1235 53.5408 85.8874C53.301 85.6513 53.1102 85.37 52.9796 85.0598C52.849 84.7496 52.7811 84.4166 52.7798 84.08C52.7849 83.4061 53.0536 82.761 53.5282 82.2826C54.0029 81.8042 54.6459 81.5305 55.3198 81.5201C56.4798 81.5201 57.6498 81.5201 58.8098 81.5201H70.2898C70.8798 81.5614 71.472 81.4777 72.0274 81.2744C72.5829 81.0711 73.0891 80.7527 73.513 80.3401C73.9369 79.9276 74.2689 79.4301 74.4872 78.8804C74.7055 78.3307 74.8052 77.741 74.7798 77.1501C74.7798 72.0801 74.7798 67.02 74.7798 61.95C74.7891 61.8782 74.7791 61.8052 74.751 61.7385C74.7229 61.6717 74.6776 61.6136 74.6198 61.5701C73.8498 62.3701 73.1098 63.19 72.3098 63.95C72.0199 64.2299 71.6675 64.4365 71.2816 64.5527C70.8958 64.6688 70.4879 64.6911 70.0917 64.6178C69.6955 64.5444 69.3226 64.3774 69.004 64.1309C68.6853 63.8843 68.4302 63.5651 68.2598 63.2C68.0279 62.7406 67.9447 62.2203 68.0218 61.7115C68.0988 61.2026 68.3323 60.7303 68.6898 60.36C70.9831 58.04 73.2898 55.7367 75.6098 53.45C76.0661 53.0018 76.6801 52.7506 77.3198 52.7506C77.9594 52.7506 78.5735 53.0018 79.0298 53.45C81.3698 55.7167 83.6765 58.02 85.9498 60.36C86.408 60.8416 86.66 61.4831 86.6523 62.1477C86.6445 62.8124 86.3774 63.4477 85.9081 63.9184C85.4387 64.3891 84.8041 64.6579 84.1394 64.6675C83.4748 64.6772 82.8326 64.4269 82.3498 63.9701C81.5398 63.2201 80.7998 62.3901 80.0198 61.6001L79.8898 61.6601Z" fill="#0E58EA"/>
<path id="Vector_3" d="M85.6198 21.97C77.8598 14.9433 70.1098 7.89668 62.3698 0.830017C62.1154 0.569063 61.8114 0.361669 61.4757 0.220062C61.1399 0.0784557 60.7792 0.00549316 60.4148 0.00549316C60.0504 0.00549316 59.6897 0.0784557 59.3539 0.220062C59.0182 0.361669 58.7141 0.569063 58.4598 0.830017C50.6931 7.93668 42.9031 15.0333 35.0898 22.12C34.8262 22.34 34.6095 22.6107 34.4527 22.9161C34.2958 23.2215 34.202 23.5554 34.1768 23.8978C34.1516 24.2402 34.1956 24.5842 34.306 24.9092C34.4165 25.2343 34.5912 25.5338 34.8198 25.79C35.0513 26.042 35.3302 26.2458 35.6406 26.3898C35.951 26.5337 36.2868 26.615 36.6287 26.629C36.9705 26.6429 37.3118 26.5892 37.6329 26.471C37.954 26.3528 38.2486 26.1723 38.4998 25.94C38.7128 25.6988 38.971 25.5018 39.2598 25.36V26.03C39.2598 32.21 39.2598 38.39 39.2598 44.56C39.2473 44.939 39.3127 45.3165 39.452 45.6691C39.5913 46.0218 39.8015 46.3421 40.0696 46.6102C40.3377 46.8783 40.658 47.0885 41.0107 47.2278C41.3633 47.3671 41.7408 47.4325 42.1198 47.42C54.3265 47.38 66.5365 47.38 78.7498 47.42C79.1335 47.4342 79.516 47.3687 79.8732 47.2277C80.2303 47.0868 80.5544 46.8733 80.825 46.6008C81.0956 46.3284 81.3068 46.0028 81.4453 45.6447C81.5838 45.2866 81.6466 44.9036 81.6298 44.52C81.5798 38.32 81.6298 32.12 81.6298 25.92C81.5949 25.724 81.6193 25.5221 81.6998 25.34C82.0598 25.64 82.3498 25.94 82.6998 26.18C82.9987 26.3911 83.3398 26.5349 83.6996 26.6014C84.0594 26.6679 84.4293 26.6556 84.7839 26.5653C85.1385 26.475 85.4692 26.3088 85.7534 26.0783C86.0375 25.8478 86.2683 25.5584 86.4298 25.23C86.6829 24.675 86.7406 24.0507 86.5935 23.4587C86.4464 22.8667 86.1032 22.342 85.6198 21.97ZM62.4698 42.29C61.1098 42.29 59.7398 42.29 58.3798 42.29C57.9898 42.29 57.8798 42.17 57.8898 41.79C57.8898 40.26 57.8898 38.73 57.8898 37.2C57.8898 35.67 57.8898 34.2 57.8898 32.67C57.8898 32.31 57.9398 32.15 58.3598 32.15C59.7398 32.15 61.1198 32.15 62.5098 32.15C62.8498 32.15 62.9398 32.26 62.9398 32.58C62.9398 35.66 62.9398 38.74 62.9398 41.82C62.9398 42.2 62.8198 42.29 62.4698 42.29ZM75.9498 42.29C73.4898 42.29 71.0298 42.29 68.5698 42.29C68.1198 42.29 68.0398 42.14 68.0398 41.73C68.0398 37.73 68.0398 33.82 68.0398 29.86C68.0509 29.4841 67.985 29.1098 67.8462 28.7602C67.7074 28.4107 67.4986 28.0932 67.2326 27.8272C66.9667 27.5612 66.6491 27.3525 66.2996 27.2137C65.95 27.0748 65.5758 27.0089 65.1998 27.02C61.9798 27.08 58.7498 27.02 55.5198 27.02C55.1504 26.995 54.78 27.0492 54.4333 27.179C54.0866 27.3087 53.7716 27.511 53.5093 27.7723C53.2471 28.0336 53.0437 28.3479 52.9127 28.6941C52.7817 29.0403 52.7262 29.4106 52.7498 29.78C52.7498 33.78 52.7498 37.7533 52.7498 41.7C52.7498 42.17 52.6198 42.28 52.1698 42.27C49.7498 42.27 47.3198 42.27 44.8998 42.27C44.4498 42.27 44.3098 42.16 44.3198 41.7C44.3198 38.25 44.3198 34.81 44.3198 31.37C44.3198 27.93 44.3198 24.62 44.3198 21.25C44.3063 21.0368 44.3447 20.8235 44.4318 20.6284C44.5189 20.4333 44.652 20.2623 44.8198 20.13C49.0131 16.3433 53.1931 12.5433 57.3598 8.73001C58.2398 7.94001 59.1298 7.15001 59.9798 6.34001C60.2898 6.04001 60.4798 6.06001 60.7898 6.34001L73.7598 18.12C74.5398 18.83 75.3198 19.55 76.1198 20.25C76.2353 20.3462 76.3277 20.4671 76.39 20.6039C76.4523 20.7407 76.483 20.8897 76.4798 21.04C76.4798 27.9533 76.4798 34.86 76.4798 41.76C76.4798 42.2 76.3498 42.29 75.9498 42.29Z" fill="#0E58EA"/>
<path id="Vector_4" d="M51.5099 61.3C47.7033 57.86 43.8999 54.4067 40.0999 50.94L28.0999 40.06C27.8619 39.798 27.5716 39.5886 27.2479 39.4453C26.9241 39.302 26.574 39.228 26.2199 39.228C25.8659 39.228 25.5157 39.302 25.192 39.4453C24.8682 39.5886 24.578 39.798 24.3399 40.06C21.0299 43.06 17.7399 46.06 14.4299 49.06C11.7399 51.52 9.03993 53.96 6.33993 56.41C4.50993 58.08 2.67995 59.74 0.859951 61.41C0.471253 61.734 0.192383 62.1704 0.0616718 62.6592C-0.0690395 63.148 -0.0451902 63.6653 0.12994 64.14C0.265595 64.5561 0.506015 64.9302 0.82809 65.2264C1.15017 65.5226 1.54306 65.731 1.96896 65.8314C2.39486 65.9319 2.83942 65.921 3.25991 65.7999C3.68041 65.6789 4.06267 65.4516 4.36993 65.14C4.56993 64.97 4.75993 64.79 4.95993 64.59C5.05343 64.7788 5.08492 64.9923 5.04992 65.2V79.25C5.04992 80.87 5.04992 82.49 5.04992 84.11C5.04729 84.4431 5.11047 84.7735 5.23581 85.0821C5.36114 85.3907 5.5462 85.6715 5.78033 85.9084C6.01447 86.1454 6.29308 86.3337 6.60018 86.4627C6.90729 86.5917 7.23685 86.6587 7.56994 86.66H44.86C45.1147 86.6715 45.3692 86.6342 45.61 86.55C46.1414 86.3713 46.5995 86.0231 46.9138 85.5588C47.2282 85.0945 47.3814 84.5398 47.3499 83.98C47.3499 77.7334 47.3499 71.4834 47.3499 65.23C47.3103 65.006 47.3418 64.7753 47.4399 64.5701L48.0699 65.16C48.3196 65.3859 48.6115 65.5601 48.9288 65.6726C49.2461 65.7851 49.5825 65.8336 49.9187 65.8154C50.2549 65.7972 50.5841 65.7126 50.8874 65.5665C51.1907 65.4204 51.4621 65.2157 51.6858 64.9642C51.9096 64.7127 52.0814 64.4194 52.1912 64.1011C52.3011 63.7829 52.3468 63.4461 52.3258 63.1101C52.3048 62.7741 52.2175 62.4456 52.0689 62.1435C51.9203 61.8414 51.7133 61.5717 51.4599 61.3501L51.5099 61.3ZM28.7799 76.44C28.7799 77.98 28.7799 79.5101 28.7799 81.0401C28.7799 81.4601 28.6399 81.56 28.2499 81.56C26.9166 81.56 25.5666 81.56 24.1999 81.56C23.8299 81.56 23.7099 81.45 23.7099 81.06C23.7099 78 23.7099 74.9401 23.7099 71.8801C23.7099 71.4901 23.8299 71.39 24.2099 71.4C25.5499 71.4 26.8999 71.4 28.2099 71.4C28.6099 71.4 28.7499 71.5 28.7399 71.92C28.7599 73.42 28.7799 74.93 28.7799 76.44ZM41.6899 81.56C39.2999 81.56 36.9099 81.56 34.5199 81.56C33.9899 81.56 33.8099 81.4601 33.8199 80.8801C33.8199 76.9601 33.8199 73.04 33.8199 69.12C33.8586 68.7419 33.813 68.3599 33.6862 68.0016C33.5595 67.6432 33.3548 67.3174 33.087 67.0477C32.8192 66.778 32.4949 66.571 32.1374 66.4417C31.78 66.3124 31.3983 66.264 31.0199 66.3H21.3899C21.0155 66.27 20.639 66.3216 20.2863 66.451C19.9337 66.5805 19.6133 66.7848 19.3472 67.05C19.0811 67.3151 18.8756 67.6348 18.7449 67.987C18.6141 68.3392 18.5613 68.7155 18.5899 69.09C18.5899 73.09 18.5899 77 18.5899 80.96C18.5899 81.39 18.5099 81.56 18.0299 81.56C15.5899 81.56 13.1399 81.56 10.6999 81.56C10.2299 81.56 10.1299 81.4 10.1399 80.96C10.1399 77.52 10.1399 74.07 10.1399 70.6301C10.1399 67.1901 10.1399 63.7701 10.1399 60.3501C10.1273 60.1899 10.1533 60.029 10.216 59.881C10.2787 59.7331 10.3761 59.6024 10.4999 59.5C14.7666 55.6267 19.0266 51.7534 23.2799 47.88C24.1399 47.09 25.0199 46.33 25.8699 45.53C26.1199 45.3 26.2799 45.28 26.5499 45.53C30.1766 48.8634 33.8133 52.1734 37.4599 55.46C38.9299 56.8 40.3999 58.14 41.8799 59.46C42.0136 59.5656 42.1204 59.7012 42.1917 59.8559C42.2629 60.0105 42.2966 60.1799 42.2899 60.3501C42.2899 67.2234 42.2899 74.0934 42.2899 80.96C42.3299 81.47 42.1699 81.56 41.6899 81.56Z" fill="#0E58EA"/>
<path id="Vector_5" d="M60.4498 16.91H62.9698C63.3174 16.8882 63.6658 16.9379 63.9935 17.0559C64.3212 17.174 64.6213 17.3579 64.8752 17.5963C65.1291 17.8348 65.3314 18.1227 65.4697 18.4424C65.608 18.7621 65.6794 19.1067 65.6794 19.455C65.6794 19.8034 65.608 20.148 65.4697 20.4676C65.3314 20.7873 65.1291 21.0753 64.8752 21.3137C64.6213 21.5522 64.3212 21.7361 63.9935 21.8542C63.6658 21.9722 63.3174 22.0218 62.9698 22H57.8898C57.5422 22.0218 57.1937 21.9722 56.866 21.8542C56.5383 21.7361 56.2383 21.5522 55.9844 21.3137C55.7305 21.0753 55.5282 20.7873 55.3899 20.4676C55.2515 20.148 55.1802 19.8034 55.1802 19.455C55.1802 19.1067 55.2515 18.7621 55.3899 18.4424C55.5282 18.1227 55.7305 17.8348 55.9844 17.5963C56.2383 17.3579 56.5383 17.174 56.866 17.0559C57.1937 16.9379 57.5422 16.8882 57.8898 16.91H60.4498Z" fill="#0E58EA"/>
<path id="Vector_6" d="M26.24 61.25H23.69C23.0465 61.2387 22.431 60.9854 21.9658 60.5407C21.5007 60.0959 21.2201 59.4923 21.18 58.85C21.1405 58.2059 21.3516 57.5715 21.769 57.0794C22.1865 56.5874 22.7781 56.2759 23.42 56.21C25.3113 56.085 27.2087 56.085 29.1 56.21C29.7439 56.271 30.3385 56.5812 30.7569 57.0744C31.1754 57.5676 31.3846 58.2047 31.34 58.85C31.3076 59.4846 31.0377 60.0838 30.5837 60.5285C30.1298 60.9731 29.5252 61.2307 28.89 61.25C27.99 61.26 27.12 61.25 26.24 61.25Z" fill="#0E58EA"/>
</g>
<defs>
<clipPath id="clip0_624_1818">
<rect width="86.67" height="86.62" fill="white"/>
</clipPath>
</defs>
</svg>
