<svg width="25" height="24" viewBox="0 0 25 24" fill="none" xmlns="http://www.w3.org/2000/svg">
<path d="M17.4998 1.99982C18.8248 2.00378 20.0943 2.53187 21.0312 3.46876C21.9681 4.40566 22.4962 5.67522 22.5002 7.00018V16.9998C22.4962 18.3248 21.9681 19.5943 21.0312 20.5312C20.0943 21.4681 18.8248 21.9962 17.4998 22.0002H7.50018C6.17522 21.9962 4.90566 21.4681 3.96876 20.5312C3.03187 19.5943 2.50378 18.3248 2.49982 16.9998V7.00018C2.50378 5.67522 3.03187 4.40566 3.96876 3.46876C4.90566 2.53187 6.17522 2.00378 7.50018 1.99982H17.4998ZM17.4998 0H7.50018C3.65 0 0.5 3.15 0.5 7.00018V16.9998C0.5 20.85 3.65 24 7.50018 24H17.4998C21.35 24 24.5 20.85 24.5 16.9998V7.00018C24.5 3.15 21.35 0 17.4998 0Z" fill="white"/>
<path d="M18.9998 7.00024C18.7032 7.00024 18.4131 6.91227 18.1665 6.74745C17.9198 6.58263 17.7275 6.34836 17.614 6.07427C17.5005 5.80018 17.4708 5.49858 17.5286 5.20761C17.5865 4.91664 17.7294 4.64936 17.9392 4.43958C18.1489 4.22981 18.4162 4.08694 18.7072 4.02907C18.9982 3.97119 19.2998 4.00089 19.5738 4.11443C19.8479 4.22796 20.0822 4.42022 20.247 4.66689C20.4118 4.91356 20.4998 5.20357 20.4998 5.50024C20.5002 5.69735 20.4617 5.89259 20.3865 6.07477C20.3113 6.25695 20.2008 6.42248 20.0614 6.56185C19.9221 6.70122 19.7565 6.8117 19.5743 6.88693C19.3922 6.96216 19.1969 7.00067 18.9998 7.00024ZM12.5 7.99989C13.2912 7.99989 14.0646 8.23449 14.7224 8.67404C15.3802 9.11358 15.8929 9.73833 16.1957 10.4693C16.4984 11.2002 16.5777 12.0045 16.4233 12.7805C16.269 13.5564 15.888 14.2692 15.3286 14.8286C14.7691 15.3881 14.0564 15.769 13.2804 15.9234C12.5044 16.0777 11.7001 15.9985 10.9692 15.6957C10.2383 15.393 9.61352 14.8803 9.17398 14.2224C8.73443 13.5646 8.49982 12.7912 8.49982 12.0001C8.50096 10.9395 8.92277 9.9227 9.6727 9.17277C10.4226 8.42283 11.4394 8.00102 12.5 7.99989ZM12.5 6.00007C11.3133 6.00007 10.1533 6.35196 9.16658 7.01125C8.17989 7.67054 7.41085 8.60761 6.95673 9.70397C6.5026 10.8003 6.38378 12.0067 6.61529 13.1706C6.8468 14.3345 7.41825 15.4036 8.25736 16.2427C9.09648 17.0818 10.1656 17.6533 11.3295 17.8848C12.4933 18.1163 13.6997 17.9975 14.7961 17.5433C15.8925 17.0892 16.8295 16.3202 17.4888 15.3335C18.1481 14.3468 18.5 13.1868 18.5 12.0001C18.5 10.4088 17.8679 8.88264 16.7426 7.75743C15.6174 6.63221 14.0913 6.00007 12.5 6.00007Z" fill="white"/>
</svg>
