<svg width="86" height="63" viewBox="0 0 86 63" fill="none" xmlns="http://www.w3.org/2000/svg">
<g clip-path="url(#clip0_414_1152)">
<path d="M71.0946 25.2283C71.0946 29.007 71.0946 32.7779 71.0946 36.5567C71.0946 37.7091 71.3135 38.9086 69.4611 38.9713C67.6087 39.034 67.3351 38.1089 67.3429 36.6194C67.382 28.9364 67.3429 21.2535 67.3429 13.5706C67.3429 12.1908 67.4289 10.764 69.2188 10.7561C71.0087 10.7483 71.1024 12.1594 71.0946 13.5471C71.0946 17.3885 71.0946 21.3084 71.0946 25.2283Z" fill="#0E58EA"/>
<path d="M84.5464 11.6341C84.5134 15.9077 82.9265 20.0223 80.0834 23.2056C79.6614 23.6838 79.1221 24.2247 78.4655 23.7151C77.809 23.2056 78.0513 22.5941 78.5124 22.0296C83.9836 15.3737 84.054 8.70207 78.5906 1.98343C78.1607 1.45817 77.809 0.846673 78.3796 0.297892C79.2393 -0.48608 79.7708 0.399799 80.2476 0.925061C82.8869 3.8795 84.4083 7.66958 84.5464 11.6341Z" fill="#0E58EA"/>
<path d="M80.7084 11.6812C80.6753 15.157 79.3805 18.5016 77.0662 21.0889C76.7223 21.4809 76.2846 21.9199 75.7453 21.5044C75.206 21.0889 75.4092 20.595 75.7843 20.1324C80.2473 14.7073 80.302 9.25088 75.8469 3.78659C75.4951 3.35541 75.1825 2.85367 75.6827 2.41464C76.3784 1.78746 76.8161 2.49303 77.199 2.92422C79.357 5.33977 80.5993 8.43961 80.7084 11.6812Z" fill="#0E58EA"/>
<path d="M76.816 12.2457C76.8021 14.562 75.9429 16.7931 74.4008 18.5174C74.1742 18.7761 73.885 19.0662 73.5254 18.7918C73.1659 18.5174 73.33 18.2117 73.5254 17.8824C75.9953 14.3232 76.0266 10.7091 73.5723 7.04792C73.3613 6.73433 73.1268 6.4286 73.4551 6.13069C73.924 5.72302 74.2367 6.18556 74.4634 6.46779C75.8991 8.05727 76.7319 10.1025 76.816 12.2457Z" fill="#0E58EA"/>
<path d="M53.5791 12.7631C53.6142 8.48986 55.2009 4.37598 58.0421 1.19162C58.4641 0.713396 59.0113 0.17246 59.6678 0.682042C60.3244 1.19162 60.0821 1.80312 59.6209 2.36758C54.1497 9.0235 54.0793 15.6951 59.5428 22.4059C59.9726 22.939 60.3244 23.5505 59.746 24.0914C58.8862 24.8754 58.3547 23.9974 57.8858 23.4721C55.2482 20.5159 53.7246 16.7275 53.5791 12.7631Z" fill="#0E58EA"/>
<path d="M57.4243 12.6846C57.456 9.21 58.748 5.86579 61.0588 3.27698C61.4027 2.885 61.8404 2.44598 62.3875 2.86933C62.9346 3.29267 62.7236 3.77873 62.3484 4.23343C57.8855 9.66636 57.8307 15.1228 62.2781 20.5871C62.6298 21.0183 62.9503 21.52 62.45 21.959C61.7466 22.5862 61.3167 21.8806 60.9337 21.4495C58.7689 19.0351 57.5257 15.9302 57.4243 12.6846Z" fill="#0E58EA"/>
<path d="M61.3169 12.1515C61.3221 9.83496 62.1793 7.60176 63.7243 5.87977C63.9509 5.62106 64.2479 5.32314 64.6075 5.60537C64.967 5.8876 64.8029 6.18551 64.6075 6.51478C62.1376 10.074 62.1141 13.6881 64.5684 17.3493C64.7716 17.655 65.0139 17.9686 64.6778 18.2587C64.2167 18.6742 63.8962 18.2116 63.6695 17.9216C62.2378 16.3327 61.4055 14.2914 61.3169 12.1515Z" fill="#0E58EA"/>
<path d="M85.9454 48.8493C85.8985 43.3615 83.6005 41.1272 78.0746 41.1115C66.3766 41.1115 54.6786 41.1115 42.9805 41.1115H12.9825C0.429959 41.1115 -0.0468209 41.5976 7.53789e-05 54.3685C7.53789e-05 60.703 2.3449 62.9922 8.73061 62.9922C25.4986 62.9922 42.2641 62.9922 59.0269 62.9922C65.6627 62.9922 72.3142 63.0627 78.9187 62.9922C83.4364 62.9216 85.8438 60.4129 85.9532 55.9364C86.0235 53.5453 85.9923 51.1934 85.9454 48.8493ZM39.7682 53.4512C29.1227 53.4826 18.4772 53.4826 7.83176 53.4512C6.76878 53.4512 5.26028 53.9373 5.15867 52.1106C5.0258 49.845 6.83913 50.6054 7.93337 50.5897C13.4046 50.5192 18.8368 50.5897 24.2924 50.5897C29.4822 50.5897 34.6799 50.5897 39.8697 50.5897C40.8936 50.5897 42.41 50.0488 42.3474 52.0322C42.2849 54.0157 40.8155 53.4512 39.7682 53.4512ZM62.8411 53.4512C61.8719 53.4512 61.0356 53.3885 60.9731 52.0714C60.9105 50.7544 61.6609 50.5662 62.6848 50.6132C63.5915 50.6524 64.5841 50.5192 64.5919 51.9146C64.6075 53.1455 63.8807 53.4512 62.8411 53.4512ZM70.4071 53.4512C69.3284 53.4512 68.3436 53.4512 68.3045 51.9382C68.2655 50.4251 69.2268 50.6838 70.1022 50.6289C70.9776 50.574 71.9312 50.4329 71.9546 51.8519C71.9703 52.9652 71.5404 53.4512 70.4071 53.4512ZM77.3946 53.5296C76.3082 53.5296 75.6985 53.169 75.6907 51.9617C75.6907 50.6368 76.4723 50.5192 77.4806 50.574C78.5358 50.4878 79.247 50.7779 79.2001 52.0401C79.1532 53.3023 78.442 53.5061 77.3946 53.5139V53.5296Z" fill="#0E58EA"/>
</g>
<defs>
<clipPath id="clip0_414_1152">
<rect width="86" height="63" fill="white"/>
</clipPath>
</defs>
</svg>
