<svg width="92" height="92" viewBox="0 0 92 92" fill="none" xmlns="http://www.w3.org/2000/svg">
<g id="Icono/dispositivos">
<path id="Vector (Stroke)" fill-rule="evenodd" clip-rule="evenodd" d="M43.1182 15.5604C46.3371 14.9932 49.6463 15.002 52.8617 15.5866C56.0771 16.1713 59.1507 17.323 61.9049 18.9901C64.6597 20.6574 67.0496 22.8131 68.9215 25.3509C70.7944 27.8899 72.1096 30.7591 72.7709 33.7983C73.0969 35.297 73.2597 36.8178 73.2593 38.3384C77.68 38.4475 81.8965 40.2511 85.031 43.3856C88.266 46.6206 90.0834 51.0082 90.0834 55.5831C90.0834 60.1581 88.266 64.5457 85.031 67.7807C81.796 71.0157 77.4084 72.8331 72.8334 72.8331C70.7163 72.8331 69.0001 71.1169 69.0001 68.9998C69.0001 66.8827 70.7163 65.1665 72.8334 65.1665C75.3751 65.1665 77.8126 64.1568 79.6098 62.3596C81.4071 60.5624 82.4167 58.1248 82.4167 55.5831C82.4167 53.0415 81.4071 50.6039 79.6098 48.8067C77.8126 47.0095 75.3751 45.9998 72.8334 45.9998H69.0001C67.8359 45.9998 66.7348 45.4708 66.0073 44.5619C65.2799 43.653 65.0048 42.4628 65.2598 41.3269C65.6969 39.3795 65.7035 37.3775 65.2794 35.4282C64.8551 33.4778 64.0034 31.5987 62.7518 29.9019C61.4992 28.2038 59.8682 26.7189 57.9351 25.5489C56.0016 24.3786 53.8122 23.5518 51.4903 23.1296C49.1682 22.7075 46.7739 22.701 44.4488 23.1107C42.1238 23.5205 39.9284 24.3356 37.9865 25.4959C34.0624 27.8405 31.4548 31.4137 30.5737 35.3394C30.1682 37.1457 28.5298 38.4042 26.68 38.3301C23.4369 38.2002 20.2657 39.1547 17.7103 41.0017C15.1582 42.8464 13.3905 45.4555 12.6647 48.3587C11.9396 51.2589 12.288 54.313 13.6646 57.0096C15.0433 59.7104 17.3816 61.9071 20.3151 63.1858C22.2559 64.0318 23.1434 66.2908 22.2974 68.2316C21.4514 70.1723 19.1924 71.0598 17.2517 70.2138C12.7415 68.2479 9.04678 64.8257 6.83621 60.4954C4.62345 56.1608 4.0495 51.209 5.22693 46.4993C6.40362 41.7925 9.24491 37.6609 13.2192 34.7882C16.3743 32.5077 20.0948 31.1264 23.9632 30.7541C25.807 25.8664 29.3756 21.7098 34.0542 18.9145C36.8188 17.2627 39.8993 16.1277 43.1182 15.5604ZM46.0001 46C48.1171 46 49.8334 47.7162 49.8334 49.8333V75.0788L54.7895 70.1228C56.2865 68.6257 58.7136 68.6257 60.2106 70.1228C61.7076 71.6198 61.7076 74.0469 60.2106 75.5439L48.7106 87.0439C47.2136 88.5409 44.7865 88.5409 43.2895 87.0439L31.7895 75.5439C30.2925 74.0469 30.2925 71.6198 31.7895 70.1228C33.2865 68.6257 35.7136 68.6257 37.2106 70.1228L42.1667 75.0788V49.8333C42.1667 47.7162 43.883 46 46.0001 46Z" fill="#0E58EA"/>
</g>
</svg>
