<svg width="91" height="58" viewBox="0 0 91 58" fill="none" xmlns="http://www.w3.org/2000/svg">
<g id="Capa_1" clip-path="url(#clip0_448_1192)">
<path id="Vector" d="M90.8982 48.2565C90.8862 48.0827 90.8409 47.9131 90.765 47.7575C90.6892 47.6019 90.5842 47.4635 90.4562 47.3501C90.3283 47.2368 90.1798 47.1508 90.0195 47.0972C89.8592 47.0436 89.6902 47.0234 89.5223 47.0377C88.7969 46.985 88.0689 46.985 87.3436 47.0377C86.5409 47.13 86.3753 46.8467 86.3817 46.0364C86.4072 32.8166 86.4072 19.5925 86.3817 6.36396C86.399 5.52733 86.2526 4.69573 85.9512 3.91914C85.6497 3.14256 85.1995 2.43704 84.6277 1.84502C84.0558 1.25299 83.374 0.786691 82.6234 0.474157C81.8728 0.161623 81.0688 0.00931167 80.2598 0.0263824H10.7278C9.90717 -0.00032161 9.08999 0.147591 8.32693 0.460951C7.56386 0.774311 6.87118 1.24644 6.29182 1.84806C5.71246 2.44967 5.25878 3.16796 4.95891 3.95837C4.65905 4.74879 4.51938 5.59448 4.54858 6.44301C4.54858 19.6188 4.54858 32.7771 4.54858 45.9178C4.53903 46.1131 4.53903 46.3088 4.54858 46.5041C4.59954 46.9323 4.44665 47.0773 4.02621 47.0575C3.3 47.0575 2.57378 47.0575 1.84757 47.0575C0.484318 47.0575 0.000172882 47.5714 0.000172882 49.0339V51.5834C-0.0338236 52.4398 0.103921 53.2943 0.404733 54.0929C0.705546 54.8916 1.16292 55.6173 1.74809 56.2243C2.33326 56.8313 3.03356 57.3066 3.80495 57.6201C4.57634 57.9336 5.40212 58.0787 6.23035 58.0462H84.8528C86.2186 58.0728 87.5517 57.6127 88.6282 56.7429C89.7047 55.8732 90.459 54.6469 90.7645 53.2699C91.153 51.59 90.9492 49.9101 90.8982 48.2565ZM7.58085 6.6143C7.58085 4.42052 8.85492 3.11611 11.0081 3.11611H79.6801C82.2282 3.11611 83.3685 4.3217 83.3685 6.94369C83.3685 19.9746 83.3685 33.0033 83.3685 46.0298C83.3685 46.8467 83.1838 47.0377 82.4002 47.0312C76.667 46.9916 70.9337 47.0312 65.1622 46.985C63.8736 46.9045 62.5917 47.2307 61.4865 47.9205C60.6747 48.4144 59.7379 48.6439 58.7982 48.5793C49.9562 48.553 41.1142 48.553 32.2722 48.5793C31.2373 48.6502 30.2061 48.3927 29.3164 47.8415C28.261 47.1908 27.0384 46.8896 25.8127 46.9784C20.003 47.0246 14.1932 46.9785 8.38351 47.0114C7.74648 47.0114 7.54263 46.906 7.54263 46.1879C7.57661 33.0165 7.58935 19.8253 7.58085 6.6143ZM84.3241 54.8708H6.72723C4.10266 54.8708 2.80949 53.3819 3.01971 50.6545C3.01971 50.2856 3.128 50.1341 3.50385 50.1604C3.8797 50.1868 4.26192 50.1604 4.63777 50.1604C11.4285 50.1604 18.2129 50.1604 25.0228 50.1604C26.2767 50.0732 27.5263 50.3859 28.6029 51.0564C29.4397 51.5792 30.411 51.8252 31.3867 51.7613C40.509 51.7613 49.6313 51.7152 58.7791 51.7613C60.3149 51.8488 61.8416 51.4661 63.1682 50.6611C63.763 50.2926 64.4506 50.116 65.143 50.1538C72.4349 50.1538 79.7268 50.1538 87.0187 50.1538C87.8341 50.1538 87.987 50.3844 87.9743 51.175C87.8787 53.6388 86.7129 54.8708 84.3241 54.8708Z" fill="#0E58EA"/>
<path id="Vector_2" d="M45.567 6.27167H78.2467C79.903 6.27167 80.3362 6.70647 80.3362 8.3798C80.3362 19.9087 80.3362 31.4353 80.3362 42.9598C80.3362 43.724 80.1578 43.9348 79.4125 43.915C77.2848 43.8623 77.2848 43.915 77.2848 41.6883C77.2848 31.2399 77.2848 20.7892 77.2848 10.3364C77.2848 9.57221 77.0937 9.38775 76.3611 9.38775C55.7383 9.4141 35.1197 9.4141 14.5053 9.38775C13.76 9.38775 13.5816 9.5788 13.588 10.343C13.588 21.2131 13.588 32.0831 13.588 42.9664C13.588 43.7306 13.4096 43.9348 12.6707 43.915C10.543 43.8623 10.5366 43.915 10.5366 41.6883V8.47203C10.5366 6.69329 10.938 6.27167 12.6261 6.27167H45.567Z" fill="#0E58EA"/>
<path id="Vector_3" d="M59.3332 22.6229C56.5496 20.0327 53.1124 18.3125 49.421 17.6622C41.1396 16.259 34.2724 18.8941 28.8895 25.5677C28.5837 25.9498 28.3862 26.0355 28.0167 25.7061C27.6688 25.3746 27.2888 25.081 26.8828 24.8299C26.1439 24.3951 26.0802 23.9998 26.6599 23.3015C32.1256 16.7136 39.0501 13.6304 47.4016 14.1838C52.4074 14.5184 57.1722 16.5278 60.9768 19.9087C61.4036 20.2776 61.6457 20.3369 62.0024 19.8692C62.2763 19.5068 62.6394 19.2499 62.9261 18.881C63.4867 18.0641 63.9007 18.2222 64.4996 18.881C65.8373 20.3633 65.8692 20.3303 64.4996 21.7467C59.7218 26.6877 54.9441 31.6264 50.1663 36.5629C49.9821 36.699 49.8466 36.8943 49.7809 37.1183C49.7153 37.3423 49.7231 37.5825 49.8032 37.8015C49.9956 38.4129 50.0623 39.0591 49.9989 39.6988C49.9355 40.3384 49.7435 40.9572 49.4351 41.5156C49.1268 42.0739 48.7089 42.5594 48.2084 42.9408C47.708 43.3223 47.1359 43.5913 46.5289 43.7306C45.3462 44.0189 44.1013 43.8095 43.0679 43.1485C42.0345 42.4876 41.2973 41.4291 41.0186 40.2061C40.7398 38.983 40.9422 37.6955 41.5814 36.6268C42.2205 35.5581 43.244 34.7958 44.4267 34.5075C45.1256 34.2784 45.878 34.2947 46.5671 34.5536C46.8414 34.6957 47.1571 34.7272 47.4526 34.642C47.7481 34.5568 48.0024 34.3609 48.1661 34.0925C48.8031 33.3414 49.5166 32.63 50.2364 31.9448C50.676 31.5298 50.6123 31.3387 50.1217 31.0489C48.8093 30.2249 47.3135 29.7653 45.7789 29.7145C44.2444 29.6638 42.7232 30.0235 41.3626 30.759C40.9039 30.9896 40.6682 31.0291 40.4389 30.5152C40.2475 30.1402 40.0348 29.7772 39.8018 29.4282C39.1648 28.2951 39.1648 28.2753 40.2669 27.7549C42.1756 26.7994 44.2962 26.3873 46.4101 26.561C48.5241 26.7347 50.5551 27.4879 52.294 28.7431C52.8164 29.0922 53.0967 29.0857 53.4343 28.6179C53.5147 28.5172 53.602 28.4225 53.6955 28.3346C55.1097 26.8787 55.1097 26.8787 53.3515 25.7653C50.6251 24.0281 47.4338 23.2357 44.2418 23.5034C41.0499 23.7712 38.0238 25.0852 35.6038 27.2542C35.177 27.6363 34.9668 27.6758 34.5718 27.2542C32.7945 25.3371 32.7817 25.3569 34.8839 23.7956C38.0424 21.4599 41.842 20.2334 45.7245 20.2962C49.6069 20.3591 53.3676 21.708 56.4538 24.1447C57.0526 24.619 57.3966 24.6849 57.8808 24.0525C58.339 23.5485 58.8238 23.0712 59.3332 22.6229Z" fill="#0E58EA"/>
<path id="Vector_4" d="M24.2898 37.6236C25.7677 37.6236 25.7677 37.6236 25.7677 39.1322C25.7677 40.7594 25.7677 40.7594 24.2134 40.7594C22.659 40.7594 22.7355 40.7594 22.7355 39.2508C22.7355 37.6236 22.7355 37.6236 24.2898 37.6236Z" fill="#0E58EA"/>
<path id="Vector_5" d="M30.24 40.7594C28.8003 40.7594 28.8003 40.7594 28.8003 39.2113C28.8003 37.6631 28.8003 37.6236 30.2973 37.6236C31.7943 37.6236 31.8326 37.6236 31.8326 39.1718C31.8326 40.7199 31.8326 40.7594 30.24 40.7594Z" fill="#0E58EA"/>
<path id="Vector_6" d="M36.4382 37.6236C37.8906 37.6236 37.8906 37.6236 37.8906 39.1586C37.8906 40.6936 37.8906 40.7594 36.3172 40.7594C34.8647 40.7594 34.8647 40.7594 34.8647 39.2245C34.8647 37.6895 34.8647 37.6236 36.4382 37.6236Z" fill="#0E58EA"/>
<path id="Vector_7" d="M56.0845 39.2574C56.0845 40.7594 56.0845 40.7594 54.6002 40.7594C53.1159 40.7594 53.0522 40.7594 53.0522 39.1256C53.0522 37.6236 53.0522 37.6236 54.5365 37.6236C56.0208 37.6236 56.0845 37.6236 56.0845 39.2574Z" fill="#0E58EA"/>
<path id="Vector_8" d="M62.149 39.2376C62.149 40.7594 62.149 40.7594 60.6774 40.7594C59.2059 40.7594 59.1167 40.7594 59.1167 39.1454C59.1167 37.5314 59.1167 37.6236 60.5819 37.6236C62.149 37.6236 62.149 37.6236 62.149 39.2376Z" fill="#0E58EA"/>
<path id="Vector_9" d="M68.2071 39.264C68.2071 40.7594 68.2071 40.7594 66.7228 40.7594C65.2385 40.7594 65.1748 40.7594 65.1748 39.1191C65.1748 37.6236 65.1748 37.6236 66.6655 37.6236C68.1561 37.6236 68.2071 37.6236 68.2071 39.264Z" fill="#0E58EA"/>
<path id="Vector_10" d="M45.4648 40.7528C45.1665 40.7515 44.8752 40.6589 44.6278 40.4865C44.3803 40.3142 44.1878 40.0699 44.0745 39.7845C43.9612 39.499 43.9322 39.1853 43.9912 38.8829C44.0502 38.5805 44.1945 38.3029 44.4059 38.0852C44.6173 37.8675 44.8863 37.7194 45.179 37.6597C45.4717 37.6 45.7749 37.6313 46.0504 37.7497C46.3259 37.868 46.5613 38.0682 46.7269 38.3248C46.8926 38.5814 46.981 38.883 46.981 39.1915C46.958 39.599 46.7908 39.9835 46.5111 40.2715C46.2314 40.5595 45.8589 40.7309 45.4648 40.7528Z" fill="#FDFDFD"/>
</g>
<defs>
<clipPath id="clip0_448_1192">
<rect width="91" height="58" fill="transparent"/>
</clipPath>
</defs>
</svg>
