<svg width="130" height="130" viewBox="0 0 130 130" fill="none" xmlns="http://www.w3.org/2000/svg">
<path d="M81.25 43.3333H81.3042" stroke="#151515" stroke-width="3" stroke-linecap="round" stroke-linejoin="round"/>
<path d="M16.25 32.5C16.25 28.1902 17.962 24.057 21.0095 21.0095C24.057 17.962 28.1902 16.25 32.5 16.25H97.5C101.81 16.25 105.943 17.962 108.99 21.0095C112.038 24.057 113.75 28.1902 113.75 32.5V97.5C113.75 101.81 112.038 105.943 108.99 108.99C105.943 112.038 101.81 113.75 97.5 113.75H32.5C28.1902 113.75 24.057 112.038 21.0095 108.99C17.962 105.943 16.25 101.81 16.25 97.5V32.5Z" stroke="#151515" stroke-width="3" stroke-linecap="round" stroke-linejoin="round"/>
<path d="M16.25 86.6657L43.3333 59.5824C48.36 54.7453 54.5567 54.7453 59.5833 59.5824L86.6667 86.6657" stroke="#151515" stroke-width="3" stroke-linecap="round" stroke-linejoin="round"/>
<path d="M75.833 75.8324L81.2497 70.4157C86.2763 65.5787 92.473 65.5787 97.4997 70.4157L113.75 86.6657" stroke="#151515" stroke-width="3" stroke-linecap="round" stroke-linejoin="round"/>
</svg>
