<svg width="89" height="39" viewBox="0 0 89 39" fill="none" xmlns="http://www.w3.org/2000/svg">
<g clip-path="url(#clip0_1022_3215)">
<path d="M41.0384 0V3.98504H35.7812V0H41.0384ZM35.8783 22.5263V6.06926H40.9737V22.5263H35.8783Z" fill="white"/>
<path d="M51.5681 29.3122C49.0082 29.3552 46.4646 28.8852 44.0786 27.9283V23.1929C46.2957 24.2527 48.7039 24.8208 51.1475 24.8603C52.7232 24.9411 54.2916 24.5902 55.6929 23.8432V19.9082C54.2067 21.2686 52.2774 22.0009 50.2902 21.9591C47.9545 21.9654 45.698 21.0873 43.9492 19.4913V8.13648C46.4785 6.52281 49.3942 5.66797 52.3688 5.66797C55.3434 5.66797 58.259 6.52281 60.7883 8.13648V26.6611C58.0133 28.4099 54.8207 29.3279 51.5681 29.3122ZM52.118 17.3237C53.3985 17.328 54.6483 16.92 55.6929 16.1566V11.1544C54.6877 10.499 53.5176 10.1627 52.3283 10.1874C51.129 10.163 49.9486 10.499 48.9314 11.1544V16.3066C49.8405 16.9796 50.9342 17.3359 52.0534 17.3237H52.118Z" fill="white"/>
<path d="M75.7512 20.5755C74.1669 22.0981 72.0935 22.9649 69.9279 23.0099C68.8056 23.0377 67.6893 22.8337 66.6447 22.4099C65.6002 21.9861 64.6485 21.3511 63.8457 20.5422V6.06934H68.8926V17.2908C69.7926 17.9536 70.8764 18.2987 71.9822 18.2746C73.2461 18.2685 74.4775 17.8609 75.5086 17.1074V6.06934H80.5878V22.5264H76.1071L75.7512 20.5755Z" fill="white"/>
<path d="M88.9999 0V3.98504H83.7266V0H88.9999ZM83.8236 22.5263V6.06926H88.9029V22.5263H83.8236Z" fill="white"/>
<path d="M2.44256 39.0172C1.8163 39.0396 1.20459 38.8195 0.727912 38.4002V35.6657H0V34.8821L0.727912 34.7987V33.9316H1.77934V34.7987H3.39693V35.6657H1.77934V37.8667C2.03144 38.0578 2.34042 38.1522 2.65285 38.1334C2.92179 38.1271 3.18854 38.0823 3.44546 38.0001V38.8337C3.1233 38.9516 2.7844 39.0136 2.44256 39.0172Z" fill="white"/>
<path d="M8.81587 35.2989V37.1164H5.93656V37.7833C6.33339 38.0028 6.7808 38.1066 7.23061 38.0834C7.7804 38.0871 8.32698 37.997 8.84821 37.8167V38.7337C8.32769 38.9188 7.78123 39.0146 7.23061 39.0172C6.46009 39.0338 5.70148 38.8195 5.04688 38.4002V35.2989C5.61903 34.8968 6.29547 34.6816 6.98798 34.6816C7.6805 34.6816 8.35694 34.8968 8.92909 35.2989H8.81587ZM5.93656 36.5828H7.82914V35.8992C7.54772 35.7039 7.21386 35.6047 6.87476 35.6157C6.54115 35.6082 6.21344 35.7072 5.93656 35.8992V36.5828Z" fill="white"/>
<path d="M10.3047 38.8828V33.4639H11.3399V38.8828H10.3047Z" fill="white"/>
<path d="M16.709 35.2988V37.1163H13.8459V37.7832C14.2374 38.0014 14.6792 38.1052 15.1238 38.0834C15.6734 38.0852 16.2197 37.9951 16.7414 37.8166V38.7336C16.2203 38.9165 15.6742 39.0121 15.1238 39.0171C14.3479 39.036 13.5834 38.8217 12.9238 38.4002V35.2988C13.4923 34.889 14.1712 34.6732 14.8649 34.6819C15.5264 34.6884 16.1699 34.9037 16.709 35.2988ZM13.8459 36.5827H15.7223V35.8991C15.4489 35.6996 15.1187 35.5998 14.7841 35.6156C14.4505 35.6081 14.1228 35.7071 13.8459 35.8991V36.5827Z" fill="white"/>
<path d="M19.2487 37.7497C19.5941 37.9502 19.9846 38.0537 20.381 38.0498C20.8371 38.0481 21.2882 37.9517 21.7074 37.7664V38.7168C21.141 38.9599 20.5258 39.0581 19.9146 39.0029C19.3033 38.9477 18.7141 38.7409 18.1973 38.4V35.2987C18.7153 34.9615 19.3034 34.7555 19.9135 34.6976C20.5236 34.6396 21.1383 34.7313 21.7074 34.9652V35.9156C21.2871 35.736 20.836 35.6452 20.381 35.6488C19.986 35.6391 19.5954 35.7368 19.2487 35.9322V37.7497Z" fill="white"/>
<path d="M25.2031 39.0168C24.4907 39.0151 23.794 38.8009 23.1973 38.3999V35.2985C23.7931 34.8954 24.4903 34.6807 25.2031 34.6807C25.9158 34.6807 26.613 34.8954 27.2089 35.2985V38.3999C26.6121 38.8009 25.9154 39.0151 25.2031 39.0168ZM26.1898 37.7496V35.9321C25.8961 35.7355 25.5533 35.6308 25.2031 35.6308C24.8528 35.6308 24.5101 35.7355 24.2163 35.9321V37.7496C24.5101 37.9462 24.8528 38.0508 25.2031 38.0508C25.5533 38.0508 25.8961 37.9462 26.1898 37.7496Z" fill="white"/>
<path d="M29.7311 38.883H28.6797V34.7979H29.6017V35.2815C30.0171 34.9127 30.542 34.701 31.0899 34.6812C31.6027 34.6692 32.1006 34.8601 32.481 35.2148C32.903 34.878 33.4194 34.6908 33.953 34.6812C34.231 34.6755 34.5073 34.7272 34.7656 34.8331C35.024 34.9391 35.2592 35.0972 35.4574 35.2981V38.883H34.406V35.9651C34.1851 35.7594 33.8946 35.6515 33.5972 35.6649C33.2229 35.6697 32.86 35.7983 32.5619 36.0318V38.883H31.5105V35.9651C31.2862 35.7653 30.998 35.6583 30.7017 35.6649C30.3224 35.6697 29.9543 35.7981 29.6502 36.0318L29.7311 38.883Z" fill="white"/>
<path d="M40.0849 38.3994C39.6689 38.7801 39.1365 38.9984 38.5805 39.0163C38.2845 39.0302 37.9889 38.9827 37.7111 38.8767C37.4332 38.7708 37.1788 38.6085 36.9629 38.3994V34.7979H38.0143V37.7324C38.2713 37.9296 38.5837 38.035 38.904 38.0326C39.2855 38.0254 39.6545 37.8908 39.9554 37.6491V34.7979H41.023V38.8829H40.101L40.0849 38.3994Z" fill="white"/>
<path d="M43.61 38.8833H42.5586V34.7982H43.4806L43.5615 35.2984C43.9825 34.9153 44.5207 34.6969 45.082 34.6815C45.3784 34.6637 45.675 34.7094 45.9534 34.8155C46.2318 34.9217 46.4859 35.0861 46.6996 35.2984V38.8833H45.5835V35.9654C45.3233 35.7624 45.0039 35.6565 44.6776 35.6652C44.2943 35.6751 43.9225 35.8029 43.61 36.032V38.8833Z" fill="white"/>
<path d="M49.2559 33.2812V34.1983H48.1074V33.2812H49.2559ZM48.1559 38.8836V34.7986H49.2074V38.8836H48.1559Z" fill="white"/>
<path d="M51.78 37.7492C52.1313 37.9496 52.5269 38.053 52.9284 38.0493C53.3844 38.0458 53.8352 37.9495 54.2549 37.7659V38.7163C53.7768 38.915 53.266 39.0169 52.7505 39.0164C52.0347 39.0036 51.3358 38.7904 50.7285 38.3995V35.2982C51.3326 34.9001 52.0336 34.6862 52.7505 34.6812C53.2652 34.6724 53.7765 34.7687 54.2549 34.9647V35.9151C53.834 35.7372 53.3833 35.6465 52.9284 35.6483C52.5283 35.6388 52.1326 35.7364 51.78 35.9318V37.7492Z" fill="white"/>
<path d="M58.7501 38.4165C58.3708 38.802 57.8593 39.0177 57.3266 39.0167C56.7298 39.0372 56.1491 38.8158 55.709 38.3998V35.2985C56.3081 34.896 57.0078 34.6816 57.7229 34.6816C58.438 34.6816 59.1377 34.896 59.7368 35.2985V38.8833H58.8148L58.7501 38.4165ZM58.7501 37.6828V36.0154C58.4661 35.8108 58.1259 35.7056 57.7795 35.7153C57.4386 35.7092 57.1046 35.8142 56.8251 36.0154V37.8329C57.0735 38.0346 57.3825 38.1408 57.6986 38.133C58.0735 38.1075 58.4281 37.9484 58.7015 37.6828H58.7501Z" fill="white"/>
<path d="M62.278 37.7497C62.6235 37.9502 63.0139 38.0537 63.4103 38.0498C63.8664 38.0481 64.3175 37.9517 64.7367 37.7664V38.7168C64.1703 38.9599 63.5552 39.0581 62.9439 39.0029C62.3326 38.9477 61.7434 38.7409 61.2266 38.4V35.2987C61.7446 34.9615 62.3327 34.7555 62.9428 34.6976C63.5529 34.6396 64.1676 34.7313 64.7367 34.9652V35.9156C64.3164 35.736 63.8653 35.6452 63.4103 35.6488C63.0153 35.6391 62.6247 35.7368 62.278 35.9322V37.7497Z" fill="white"/>
<path d="M67.3569 33.2812V34.1983H66.2246V33.2812H67.3569ZM66.2731 38.8836V34.7986H67.3246V38.8836H66.2731Z" fill="white"/>
<path d="M70.8515 39.0168C70.1391 39.0151 69.4425 38.8009 68.8457 38.3999V35.2985C69.4416 34.8954 70.1388 34.6807 70.8515 34.6807C71.5642 34.6807 72.2615 34.8954 72.8573 35.2985V38.3999C72.2606 38.8009 71.5639 39.0151 70.8515 39.0168ZM71.8382 37.7496V35.9321C71.5445 35.7355 71.2018 35.6308 70.8515 35.6308C70.5013 35.6308 70.1585 35.7355 69.8648 35.9321V37.7496C70.1585 37.9462 70.5013 38.0508 70.8515 38.0508C71.2018 38.0508 71.5445 37.9462 71.8382 37.7496Z" fill="white"/>
<path d="M75.3796 38.8833H74.3281V34.7982H75.2501V35.2984C75.6711 34.9153 76.2093 34.6969 76.7707 34.6815C77.067 34.6637 77.3637 34.7094 77.6421 34.8155C77.9205 34.9217 78.1745 35.0861 78.3883 35.2984V38.8833H77.3369V35.9654C77.0835 35.7611 76.7687 35.6549 76.4472 35.6652C76.0588 35.6749 75.6817 35.8025 75.3634 36.032L75.3796 38.8833Z" fill="white"/>
<path d="M83.7754 35.2989V37.1164H80.8961V37.7833C81.2929 38.0028 81.7403 38.1066 82.1902 38.0834C82.7399 38.0871 83.2865 37.997 83.8078 37.8167V38.7337C83.2874 38.9194 82.7408 39.0152 82.1902 39.0172C81.4143 39.0361 80.6499 38.8218 79.9902 38.4002V35.2989C80.5624 34.8968 81.2388 34.6816 81.9313 34.6816C82.6239 34.6816 83.3003 34.8968 83.8724 35.2989H83.7754ZM80.8961 36.5828H82.7887V35.8992C82.5072 35.7039 82.1734 35.6047 81.8343 35.6157C81.5007 35.6082 81.173 35.7072 80.8961 35.8992V36.5828Z" fill="white"/>
<path d="M85.2637 35.2989C85.8739 34.8876 86.589 34.6728 87.318 34.6819C87.8689 34.6811 88.4159 34.7769 88.9356 34.9654V35.8991C88.4164 35.7088 87.8691 35.6128 87.318 35.6156C86.9142 35.6018 86.5135 35.6936 86.1534 35.8824V36.4493L88.9518 36.7328V38.4002C88.3346 38.8092 87.615 39.0236 86.8813 39.0171C86.331 39.0099 85.7853 38.9143 85.2637 38.7337V37.8666C85.7834 38.0551 86.3304 38.1509 86.8813 38.1501C87.2955 38.1638 87.7066 38.0722 88.0783 37.8833V37.283L85.296 36.9829L85.2637 35.2989Z" fill="white"/>
<path d="M9.65608 7.60334H2.27986L0.0152371 0.60035C-0.00831948 0.531718 -0.0153687 0.458225 -0.0053234 0.386165C0.00472192 0.314105 0.031569 0.245626 0.0729202 0.186609C0.114271 0.127591 0.168893 0.0797853 0.232098 0.0473001C0.295303 0.0148149 0.365191 -0.00138034 0.435803 9.21402e-05H7.19736L9.65608 7.60334Z" fill="#FF7A00"/>
<path d="M32.9981 0L21.9338 22.7931H14.5737L9.65625 7.58658H17.0163L18.9898 13.6725L25.6219 0H32.9981Z" fill="white"/>
</g>
<defs>
<clipPath id="clip0_1022_3215">
<rect width="89" height="39" fill="white"/>
</clipPath>
</defs>
</svg>
