<svg width="27" height="20" viewBox="0 0 27 20" fill="none" xmlns="http://www.w3.org/2000/svg">
<path d="M26.4249 4.32161C26.4249 2.02803 24.7378 0.182976 22.6532 0.182976C19.8296 0.0509682 16.9499 0 14.0069 0H13.0895C10.1537 0 7.26892 0.0509683 4.44527 0.183486C2.36575 0.183486 0.678699 2.03874 0.678699 4.33231C0.551278 6.14628 0.497252 7.96076 0.50031 9.77523C0.495213 11.5897 0.552977 13.4059 0.673603 15.2238C0.673603 17.5173 2.36066 19.3777 4.44017 19.3777C7.40653 19.5153 10.4493 19.5765 13.5431 19.5714C16.642 19.5816 19.6763 19.517 22.6461 19.3777C24.7307 19.3777 26.4177 17.5173 26.4177 15.2238C26.5401 13.4042 26.5961 11.5897 26.591 9.77013C26.6026 7.95566 26.5472 6.13948 26.4249 4.32161ZM11.0508 14.7752V4.75994L18.4412 9.76504L11.0508 14.7752Z" fill="white"/>
</svg>
