<svg width="26" height="25" viewBox="0 0 26 25" fill="none" xmlns="http://www.w3.org/2000/svg">
<path fill-rule="evenodd" clip-rule="evenodd" d="M21.8318 3.62847C20.6776 2.47366 19.3063 1.55855 17.797 0.935837C16.2876 0.313121 14.67 -0.00490835 13.0372 5.72629e-05C6.18507 5.72629e-05 0.607013 5.55024 0.604226 12.3734C0.601195 14.5461 1.1739 16.6808 2.26404 18.5601L0.5 24.9698L7.09078 23.2492C8.91514 24.2375 10.9574 24.7548 13.0322 24.7541H13.0372C19.8889 24.7541 25.4664 19.2033 25.4697 12.3807C25.4739 10.7535 25.1544 9.14175 24.5298 7.63919C23.9053 6.13664 22.9882 4.77329 21.8318 3.62847ZM13.0372 22.6656H13.0328C11.1831 22.6662 9.36709 22.1712 7.77354 21.2321L7.39621 21.0092L3.48522 22.0303L4.52915 18.2352L4.28336 17.845C3.24911 16.2076 2.70115 14.3101 2.70324 12.3734C2.70324 6.70342 7.34103 2.09016 13.0411 2.09016C15.7755 2.08527 18.3999 3.16671 20.337 5.09662C22.2742 7.02653 23.3654 9.64684 23.3707 12.3812C23.3685 18.0518 18.7329 22.6656 13.0372 22.6656ZM18.705 14.9635C18.3946 14.8085 16.8657 14.0606 16.5826 13.9575C16.2995 13.8543 16.0905 13.8025 15.8837 14.1124C15.6769 14.4223 15.0811 15.1157 14.8999 15.3247C14.7188 15.5337 14.5377 15.5565 14.2272 15.4016C13.9168 15.2466 12.9152 14.9206 11.7286 13.8672C10.805 13.0473 10.1819 12.0351 10.0008 11.7258C9.81961 11.4165 9.98124 11.2487 10.1367 11.0949C10.2766 10.9561 10.4472 10.7337 10.6027 10.5531C10.7582 10.3725 10.81 10.2432 10.9131 10.037C11.0163 9.83077 10.965 9.65018 10.8875 9.49579C10.81 9.3414 10.1886 7.81925 9.92997 7.20003C9.67748 6.59696 9.42165 6.6789 9.23104 6.66942C9.0499 6.6605 8.84089 6.65828 8.63522 6.65828C8.478 6.66237 8.3233 6.69883 8.1808 6.76538C8.0383 6.83193 7.91104 6.92715 7.80698 7.04508C7.52217 7.35497 6.71958 8.10406 6.71958 9.62454C6.71958 11.145 7.8343 12.6164 7.98813 12.8227C8.14196 13.0289 10.1785 16.1518 13.2947 17.4911C13.8734 17.7389 14.4646 17.9562 15.066 18.1421C15.8101 18.3773 16.4873 18.3444 17.0224 18.2647C17.6193 18.1761 18.8617 17.5168 19.1197 16.7944C19.3778 16.0721 19.3783 15.4534 19.3009 15.3247C19.2234 15.1959 19.016 15.1179 18.705 14.9635Z" fill="white"/>
</svg>
