<svg width="110" height="89" viewBox="0 0 110 89" fill="none" xmlns="http://www.w3.org/2000/svg">
<g id="Capa_1" clip-path="url(#clip0_590_5224)">
<path id="Vector" d="M104.022 13.4137C103.928 13.5316 103.827 13.6445 103.722 13.752L99.0729 18.399C98.8229 18.6478 98.653 18.7175 98.3531 18.399C92.9685 13.1597 86.0906 9.702 78.6584 8.49797C75.099 7.93764 71.4785 7.874 67.9014 8.3089C61.251 9.10445 54.949 11.7072 49.6863 15.8317C48.6866 16.588 47.7968 17.4438 46.8771 18.2796C46.5672 18.5583 46.3672 18.6478 46.0273 18.2796C44.4944 16.7207 42.9481 15.175 41.3886 13.6425C41.0787 13.3341 41.0987 13.155 41.3886 12.8664C48.4032 6.07317 57.4723 1.77132 67.1915 0.626911C70.4022 0.262367 73.6426 0.235667 76.8589 0.547287C80.7688 0.940074 84.6103 1.83996 88.2858 3.22406C92.2465 4.6688 95.9746 6.68008 99.3528 9.19454C100.862 10.3311 102.304 11.5538 103.672 12.8564C103.792 13.0355 103.992 13.1749 104.022 13.4137Z" fill="#0E58EA"/>
<path id="Vector_2" d="M94.484 22.8869C94.3641 23.0262 94.2841 23.1655 94.1741 23.2749C92.6045 24.8372 91.025 26.3895 89.4754 27.9618C89.1555 28.2901 88.9855 28.2105 88.6956 27.9618C84.3402 23.8606 78.5764 21.5686 72.5808 21.5538C66.5853 21.539 60.8102 23.8025 56.4344 27.8822C56.1145 28.1807 55.9545 28.2304 55.6246 27.8822C54.085 26.3166 52.5321 24.7709 50.9659 23.2451C50.666 22.9565 50.646 22.7873 50.9659 22.4888C54.2657 19.356 58.2134 16.9787 62.5327 15.5233C66.9413 14.0462 71.6249 13.5647 76.2436 14.1138C80.8624 14.6629 85.3004 16.2287 89.2355 18.6976C90.9959 19.7993 92.6316 21.0871 94.1141 22.5386L94.484 22.8869Z" fill="#0E58EA"/>
<path id="Vector_3" d="M84.867 32.4695C84.7708 32.604 84.6638 32.7304 84.547 32.8476C82.9975 34.39 81.4379 35.9224 79.8983 37.4847C79.5684 37.823 79.3984 37.7533 79.0685 37.4847C77.2295 35.8785 74.8566 35.0097 72.4103 35.0467C70.1301 35.0562 67.9256 35.8627 66.1821 37.3254C65.7122 37.7135 65.4523 37.6737 65.0524 37.2558C63.6128 35.7964 62.1565 34.3535 60.6836 32.9272C60.2737 32.5192 60.2837 32.2904 60.7335 31.9321C63.0196 29.8371 65.8427 28.4114 68.8913 27.8125C71.4503 27.2628 74.1007 27.2932 76.6463 27.9012C79.192 28.5093 81.5676 29.6794 83.5973 31.3251C83.9472 31.5938 84.2671 31.8923 84.597 32.1809C84.687 32.2406 84.767 32.3501 84.867 32.4695Z" fill="#0E58EA"/>
<path id="Vector_4" d="M72.5904 42.0322C71.2063 42.0322 69.8533 42.4407 68.7024 43.2061C67.5516 43.9715 66.6547 45.0594 66.125 46.3322C65.5953 47.605 65.4567 49.0055 65.7268 50.3567C65.9968 51.7079 66.6633 52.949 67.642 53.9231C68.6207 54.8973 69.8676 55.5607 71.2251 55.8295C72.5826 56.0983 73.9897 55.9603 75.2684 55.4331C76.5472 54.9059 77.6401 54.0131 78.4091 52.8676C79.178 51.7221 79.5885 50.3754 79.5885 48.9978C79.5885 47.1504 78.8512 45.3787 77.5388 44.0724C76.2264 42.7661 74.4464 42.0322 72.5904 42.0322ZM72.5304 52.8587C72.0125 52.8591 71.4999 52.7553 71.0234 52.5534C70.5469 52.3515 70.1163 52.0556 69.7577 51.6838C69.399 51.3119 69.1197 50.8717 68.9364 50.3896C68.7532 49.9074 68.6699 49.3934 68.6914 48.8784C68.7151 48.1186 68.9635 47.3827 69.4057 46.7628C69.8478 46.143 70.4639 45.6669 71.1767 45.3941C71.8895 45.1214 72.6674 45.0641 73.4127 45.2296C74.1581 45.395 74.8379 45.7758 75.3667 46.3241C75.8956 46.8725 76.2501 47.564 76.3858 48.3121C76.5214 49.0601 76.4322 49.8314 76.1293 50.5292C75.8265 51.227 75.3234 51.8203 74.6831 52.2347C74.0429 52.6491 73.2941 52.8661 72.5304 52.8587Z" fill="#0E58EA"/>
<path id="Vector_5" d="M9.09773 32.4695C9.32089 33.1325 9.71559 33.7253 10.2421 34.1882C10.7686 34.6511 11.4083 34.9678 12.0969 35.1064C12.2169 35.1064 12.3968 35.1064 12.4368 35.2457C12.4716 35.4232 12.4716 35.6056 12.4368 35.7831C12.4368 35.9124 12.2169 35.8627 12.1169 35.9323C11.9866 35.9968 11.8627 36.0734 11.747 36.1612C11.569 36.3138 11.4387 36.5138 11.3714 36.7378C11.3041 36.9617 11.3026 37.2002 11.3671 37.425C11.419 37.6633 11.5423 37.8803 11.7209 38.0474C11.8994 38.2144 12.1246 38.3235 12.3668 38.3603C12.5268 38.3603 12.6168 38.42 12.6168 38.5991C12.6168 38.7783 12.6168 38.8081 12.4368 38.8579C12.1506 38.9321 11.8994 39.1036 11.7266 39.3426C11.5538 39.5816 11.4702 39.8731 11.4904 40.1668C11.5105 40.4606 11.6331 40.7381 11.8369 40.9515C12.0408 41.1649 12.313 41.3008 12.6068 41.3356C12.7667 41.3356 12.8067 41.4351 12.8267 41.5745C12.8467 41.7138 12.8267 41.7934 12.6468 41.8431C12.3426 41.9232 12.0796 42.1136 11.9094 42.3769C11.7392 42.6402 11.6741 42.9574 11.727 43.2661C11.7832 43.585 11.9566 43.8717 12.2135 44.0704C12.4703 44.269 12.7923 44.3654 13.1166 44.3408C13.8264 44.3408 14.5263 44.3408 15.2261 44.3408C15.486 44.3408 15.566 44.4005 15.566 44.6691C15.566 46.8384 15.566 48.9977 15.566 51.167C15.566 52.8985 15.566 54.6299 15.566 56.3613C16.8256 56.3016 18.2852 56.2917 20.0048 56.2917H22.3841C22.2941 52.391 22.3841 48.4703 22.3841 44.5696C22.3841 44.3408 22.4941 44.3408 22.654 44.3408H25.1034C25.4063 44.3414 25.6996 44.235 25.9311 44.0405C26.1626 43.8461 26.3173 43.5762 26.3677 43.2789C26.4181 42.9816 26.3609 42.6761 26.2063 42.4169C26.0516 42.1576 25.8096 41.9613 25.5232 41.863C25.3833 41.863 25.2533 41.8133 25.2633 41.5943C25.2733 41.3754 25.4233 41.3655 25.5832 41.3356C25.8525 41.2833 26.0967 41.1435 26.2776 40.9383C26.4585 40.733 26.5659 40.4738 26.583 40.2012C26.6116 39.9122 26.5386 39.6222 26.3763 39.3809C26.214 39.1395 25.9726 38.9616 25.6932 38.8778C25.5532 38.8778 25.4133 38.8778 25.4333 38.6191C25.4533 38.3603 25.5532 38.3902 25.7132 38.3603C25.9927 38.3117 26.2478 38.1712 26.4377 37.9613C26.6276 37.7515 26.7415 37.4844 26.761 37.2026C26.7806 36.9208 26.7048 36.6407 26.5456 36.4068C26.3865 36.173 26.1533 35.9989 25.8832 35.9124C25.7132 35.8527 25.6032 35.803 25.6532 35.594C25.7032 35.385 25.6032 35.186 25.9531 35.1064C26.7589 34.9671 27.5024 34.5853 28.0833 34.0124C28.6643 33.4394 29.0548 32.703 29.2022 31.9023C29.6921 29.8624 30.202 27.8025 30.6319 25.7527C31.0448 24.2536 31.329 22.7223 31.4816 21.1753C31.5816 19.5533 31.5316 17.9313 31.4816 16.3093C31.5018 15.998 31.4134 15.6893 31.2312 15.4355C31.049 15.1816 30.7843 14.9982 30.4819 14.9162C29.882 14.757 29.8721 14.4286 29.9121 13.9809C29.9171 13.8881 29.9171 13.795 29.9121 13.7022C29.9121 10.4981 29.9121 7.28729 29.9121 4.06987C29.9248 3.7533 29.8714 3.43755 29.7552 3.1426C29.639 2.84764 29.4626 2.57991 29.237 2.35635C29.0115 2.1328 28.7418 1.95826 28.445 1.84384C28.1481 1.72942 27.8307 1.67758 27.5127 1.69161C26.8629 1.69161 26.2031 1.69161 25.5133 1.69161C25.4626 1.70005 25.4107 1.69816 25.3607 1.68605C25.3108 1.67394 25.2638 1.65186 25.2227 1.62116C25.1815 1.59046 25.1471 1.55177 25.1215 1.50743C25.0958 1.4631 25.0794 1.41406 25.0734 1.36325C25.0044 0.937002 24.7696 0.55493 24.4197 0.299779C24.0698 0.0446279 23.633 -0.0630635 23.2039 -8.28886e-06H14.8162C14.5903 -0.044132 14.3578 -0.0418574 14.1329 0.00667255C13.9079 0.0552025 13.6953 0.148952 13.5081 0.282196C13.3209 0.415441 13.163 0.585366 13.0441 0.781528C12.9252 0.977691 12.8478 1.19596 12.8167 1.42295C12.8097 1.46615 12.7937 1.50743 12.7699 1.54424C12.7461 1.58104 12.715 1.61258 12.6784 1.63686C12.6418 1.66114 12.6006 1.67764 12.5573 1.68535C12.514 1.69307 12.4696 1.69182 12.4268 1.68168H10.2874C9.99737 1.6813 9.71014 1.73827 9.44241 1.84931C9.17468 1.96034 8.93179 2.12322 8.72784 2.32848C8.47742 2.58121 8.28376 2.88397 8.15968 3.21675C8.03559 3.54954 7.9839 3.90478 8.00803 4.25893C8.00803 7.64221 8.00803 11.0222 8.00803 14.3988C8.00803 14.6177 8.00803 14.7272 7.72811 14.7869C7.35361 14.8661 7.0191 15.0741 6.78328 15.3744C6.54746 15.6746 6.42538 16.0479 6.43845 16.4287C6.43845 17.6826 6.43845 18.9264 6.43845 20.1802C6.44286 21.2745 6.5635 22.3651 6.79835 23.4341C7.29822 25.6333 7.79808 27.8224 8.32793 30.0116C8.53646 30.8451 8.7935 31.6657 9.09773 32.4695ZM10.0975 4.21912C10.0883 4.09812 10.112 3.97691 10.1661 3.86817C10.2202 3.75942 10.3027 3.66715 10.4049 3.60102C10.5071 3.53489 10.6253 3.49733 10.7471 3.49228C10.8689 3.48723 10.9898 3.51488 11.0972 3.57233C11.2471 3.64198 11.1772 3.77133 11.1772 3.87084C11.1772 5.0782 11.1772 6.28226 11.1772 7.48299C11.1772 7.72181 11.2272 7.80141 11.4771 7.79146C11.7933 7.77156 12.1106 7.77156 12.4268 7.79146C12.6368 7.79146 12.6867 7.73176 12.6867 7.5228C12.6867 6.3088 12.6867 5.09479 12.6867 3.87084C12.6867 3.69172 12.6868 3.55242 12.9467 3.56237C13.2066 3.57232 13.2566 3.62209 13.2466 3.86091C13.2466 5.05501 13.2466 6.24908 13.2466 7.44317C13.2466 7.73175 13.3266 7.81136 13.6065 7.79146C13.8992 7.76657 14.1935 7.76657 14.4862 7.79146C14.7162 7.79146 14.7762 7.72179 14.7662 7.50288V3.89076C14.7662 3.69174 14.7662 3.56237 15.0361 3.56237C15.306 3.56237 15.306 3.71162 15.306 3.90069C15.306 5.06493 15.306 6.23913 15.306 7.41332C15.306 7.7417 15.416 7.81136 15.7059 7.79146C15.9886 7.7666 16.273 7.7666 16.5557 7.79146C16.7756 7.79146 16.8456 7.73175 16.8456 7.51284C16.8456 6.29884 16.8456 5.09481 16.8456 3.89076C16.8456 3.69174 16.8456 3.56237 17.1155 3.56237C17.3855 3.56237 17.4055 3.66188 17.4055 3.8808C17.4055 5.08485 17.4055 6.2889 17.4055 7.49295C17.4055 7.73177 17.4654 7.81136 17.7054 7.79146C17.9981 7.76657 18.2924 7.76657 18.5851 7.79146C18.8651 7.79146 18.915 7.7019 18.9051 7.44317C18.9051 6.24908 18.9051 5.05501 18.9051 3.86091C18.9051 3.67184 18.905 3.56237 19.175 3.56237C19.4449 3.56237 19.4649 3.64197 19.4649 3.87084C19.4649 5.07489 19.4649 6.27895 19.4649 7.49295C19.4649 7.73177 19.5249 7.80141 19.7648 7.79146C20.0711 7.77155 20.3783 7.77155 20.6846 7.79146C20.9145 7.79146 20.9845 7.79147 20.9845 7.49295C20.9845 6.27895 20.9845 5.06495 20.9845 3.85095C20.9845 3.62208 21.0545 3.56237 21.2744 3.56237C21.4943 3.56237 21.5343 3.64197 21.5343 3.84099C21.5343 5.04504 21.5343 6.24909 21.5343 7.45313C21.5343 7.72181 21.5943 7.81136 21.8642 7.79146C22.1469 7.7666 22.4313 7.7666 22.714 7.79146C22.9739 7.79146 23.0639 7.73177 23.0539 7.4631C23.0539 6.27895 23.0539 5.0948 23.0539 3.91065C23.0539 3.70168 23.0539 3.55242 23.3438 3.56237C23.6338 3.57232 23.6138 3.71162 23.6138 3.90069C23.6138 5.08484 23.6138 6.26898 23.6138 7.44317C23.6138 7.7417 23.6938 7.81136 23.9737 7.79146C24.253 7.76656 24.5341 7.76656 24.8134 7.79146C25.0534 7.79146 25.1234 7.79147 25.1234 7.49295C25.1234 6.27895 25.1234 5.06494 25.1234 3.84099C25.1234 3.62207 25.1933 3.57232 25.4133 3.56237C25.6332 3.55242 25.6832 3.66189 25.6832 3.86091C25.6832 5.04505 25.6832 6.22918 25.6832 7.41332C25.6832 7.7218 25.7632 7.82131 26.0731 7.79146C26.383 7.76161 26.9329 7.94073 27.1428 7.71187C27.3527 7.483 27.2028 7.02524 27.2028 6.66701C27.2028 5.73164 27.2028 4.79628 27.2028 3.86091C27.2028 3.62209 27.2828 3.56237 27.5127 3.56237C28.2125 3.56237 28.2825 3.64197 28.2825 4.33853C28.2825 7.67205 28.2825 11.0155 28.2825 14.349C28.2825 14.6675 28.1925 14.7371 27.8926 14.7272H19.265C16.3758 14.7272 13.4865 14.7272 10.6073 14.7272C10.2974 14.7272 10.2274 14.6376 10.2374 14.349C10.0875 10.9757 10.0775 7.6024 10.0775 4.21912H10.0975Z" fill="#0E58EA"/>
<path id="Vector_6" d="M109.97 71.0388C109.9 64.0732 106.971 61.2372 99.8928 61.2273C84.9369 61.2273 69.9777 61.2273 55.0151 61.2273H16.6056C0.549946 61.2273 -0.0598934 61.8442 0.0100875 78.0541C0.0100875 86.0944 3.00926 89 11.167 89C32.6212 89 54.0687 89 75.5095 89C83.9872 89 92.5048 89.0895 100.943 88.9502C106.731 88.8607 109.81 85.6764 109.94 79.9945C110.03 76.9993 109.99 74.0141 109.97 71.0388ZM50.8662 76.86C37.2499 76.8998 23.6336 76.8998 10.0174 76.86C8.65772 76.86 6.72825 77.467 6.59829 75.1485C6.43833 72.2727 8.7577 73.2379 10.1573 73.218C17.1554 73.1284 24.1535 73.218 31.0716 73.218C37.7198 73.218 44.358 73.218 50.9962 73.218C52.3158 73.218 54.2453 72.5413 54.1653 75.0489C54.0853 77.5565 52.2158 76.86 50.8662 76.86ZM80.3582 76.86C79.1185 76.86 78.0488 76.7804 77.9788 75.1086C77.9088 73.4369 78.8486 73.1981 80.1682 73.2578C81.3279 73.3076 82.5876 73.1384 82.6076 74.9097C82.6375 76.4918 81.7178 76.86 80.3582 76.86ZM90.0355 76.86C88.6559 76.86 87.4062 76.86 87.3563 74.9395C87.3063 73.019 88.5259 73.3474 89.6456 73.2777C90.7653 73.208 91.985 73.0289 92.015 74.83C92.055 76.2729 91.5051 76.86 90.0555 76.86H90.0355ZM98.9831 76.9595C97.5835 76.9595 96.8137 76.5018 96.8037 74.9694C96.8037 73.2877 97.8034 73.1384 99.0831 73.208C100.443 73.0986 101.352 73.4668 101.292 75.0689C101.232 76.6709 100.353 76.9496 99.0031 76.9595H98.9831Z" fill="#0E58EA"/>
</g>
<defs>
<clipPath id="clip0_590_5224">
<rect width="110" height="89" fill="white"/>
</clipPath>
</defs>
</svg>
