<svg width="91" height="72" viewBox="0 0 91 72" fill="none" xmlns="http://www.w3.org/2000/svg">
<g id="Capa_1" clip-path="url(#clip0_544_1105)">
<path id="Vector" d="M90.1501 45.0159C90.132 44.8738 90.085 44.7369 90.0119 44.6135C89.9388 44.4901 89.8412 44.3828 89.7251 44.298C89.6275 44.1357 89.5422 43.9663 89.4701 43.7913C88.052 39.8614 85.4931 36.4373 82.1169 33.9519C80.1736 32.4996 78.0253 31.3399 75.7414 30.5103C72.7571 29.5508 69.562 29.4411 66.5182 30.1937L65.1581 30.5526C61.7256 31.4019 58.5894 33.1605 56.0835 35.6411C53.533 38.1089 51.6431 41.1706 50.5854 44.548C49.5277 47.9255 49.3357 51.512 50.0268 54.9819C50.5966 58.1205 51.9076 61.0801 53.8521 63.6176C55.8042 66.2324 58.3439 68.3581 61.269 69.8252C64.267 71.2797 67.575 71.9911 70.9101 71.8985C74.2451 71.8059 77.5079 70.912 80.4195 69.2934C83.331 67.6748 85.8047 65.3796 87.6288 62.6042C89.4529 59.8287 90.5732 56.6555 90.8939 53.3561C91.2342 50.5549 90.9808 47.7139 90.1501 45.0159ZM86.7286 52.7438C86.4739 55.3619 85.5852 57.8798 84.1385 60.0827C82.6919 62.2855 80.7302 64.1078 78.4208 65.394C76.1115 66.6802 73.5233 67.3921 70.877 67.4688C68.2307 67.5456 65.605 66.9849 63.2241 65.8347C60.9037 64.6623 58.8887 62.971 57.3374 60.8939C55.7869 58.8807 54.7448 56.5276 54.2984 54.0317C53.7524 51.2781 53.9056 48.4327 54.7442 45.7526C55.5827 43.0726 57.0803 40.6423 59.1013 38.6815C61.092 36.7153 63.5816 35.3217 66.3057 34.6488L67.3895 34.3531C69.817 33.8344 72.336 33.9214 74.7214 34.6065C76.4948 35.3801 78.2008 36.2982 79.8218 37.3513C82.5167 39.3119 84.5535 42.0346 85.666 45.1637C85.7154 45.3076 85.7871 45.443 85.8785 45.5648C86.0605 45.696 86.1827 45.8934 86.2185 46.1138C86.8434 48.2658 87.0171 50.5224 86.7286 52.7438Z" fill="#0E58EA"/>
<path id="Vector_2" d="M82.2231 49.3865C84.3482 49.3865 85.262 50.6533 84.5607 52.807C84.5607 53.3982 84.1569 53.715 83.7957 54.0528C81.6705 56.0376 79.7366 58.1278 77.6114 60.0703C76.3575 61.2316 75.2312 62.5619 74.0198 63.7865C73.4623 64.3403 72.8734 64.8619 72.256 65.3489C72.0064 65.6264 71.6979 65.8453 71.3528 65.9898C71.0077 66.1344 70.6347 66.201 70.2605 66.1848C69.8864 66.1686 69.5205 66.0701 69.1894 65.8964C68.8582 65.7226 68.57 65.478 68.3456 65.1801C66.8155 63.7021 65.3279 62.1819 63.8403 60.6827C63.2027 60.0493 62.5652 59.4159 61.9064 58.8035C60.3125 57.1566 58.6548 55.5731 57.061 53.9473C56.7422 53.6305 56.2747 53.3982 56.3809 52.8281C56.139 52.4061 56.0336 51.9204 56.0792 51.4368C56.1249 50.9533 56.3192 50.4955 56.6359 50.1256C56.8474 49.8847 57.1111 49.6947 57.4073 49.5699C57.7034 49.445 58.0242 49.3886 58.3455 49.4049C58.6667 49.4212 58.9801 49.5096 59.2619 49.6637C59.5438 49.8178 59.7867 50.0334 59.9724 50.2944C62.3101 52.5747 64.6266 54.8974 66.943 57.1988C67.198 57.4522 67.4531 57.7267 67.7293 57.9589C68.0056 58.1912 68.3031 58.17 68.3031 57.6844V56.8188C68.3031 50.7167 68.3031 44.6146 68.3031 38.5337C68.3031 37.4146 68.3031 36.4223 69.5995 35.9366C70.0904 35.7419 70.6325 35.7151 71.1404 35.8603C71.6484 36.0056 72.0931 36.3148 72.4047 36.739C72.6114 36.9117 72.7691 37.135 72.8623 37.3868C72.9555 37.6386 72.9809 37.9102 72.936 38.1748C72.936 44.8469 72.936 51.519 72.936 58.0856C72.936 58.3178 73.0635 58.2123 72.936 58.2123C72.8085 58.2123 72.936 58.2123 72.936 58.1067C72.936 57.6844 73.3398 57.4522 73.6161 57.1777L80.6717 50.2311C80.854 49.9879 81.087 49.7865 81.3547 49.6407C81.6224 49.495 81.9186 49.4083 82.2231 49.3865Z" fill="#0E58EA"/>
<path id="Vector_3" d="M84.0933 15.5402C83.8671 15.4941 83.6678 15.3628 83.5371 15.1738C83.4063 14.9848 83.3543 14.7529 83.392 14.5266C83.392 13.3442 83.392 12.1618 83.392 10.9794C83.486 9.99462 83.2005 9.01114 82.5931 8.22735C81.9857 7.44357 81.1015 6.91787 80.1192 6.75654H42.1211C41.7694 6.78776 41.4157 6.72377 41.0976 6.57135C40.7796 6.41893 40.509 6.18382 40.3147 5.89091C39.6134 4.8563 38.827 3.77946 38.1895 2.85043C37.6617 2.03094 36.9265 1.36354 36.0575 0.915162C35.1885 0.466784 34.2161 0.25312 33.2378 0.295546C30.3263 0.295546 27.3936 0.295546 24.4821 0.295546H12.6662C12.4181 0.150752 12.1357 0.0744019 11.848 0.0744019C11.5603 0.0744019 11.2778 0.150752 11.0298 0.295546C10.0209 0.624368 9.16397 1.30137 8.61426 2.20388C8.06455 3.10639 7.85847 4.17473 8.03329 5.21523C8.03329 5.78532 8.03329 6.3554 8.03329 6.92549C8.03329 9.45921 8.03329 12.014 8.03329 14.5477C8.03329 16.6592 8.03329 18.7706 8.03329 20.8821C8.03329 22.9935 8.03329 22.9935 5.90811 22.9935C5.4766 22.9615 5.04328 22.9615 4.61176 22.9935C3.63095 23.0712 2.69314 23.4268 1.90963 24.0182C1.12612 24.6095 0.529802 25.4117 0.191389 26.3296C-0.0995374 27.294 -0.179249 28.3091 -0.0423818 29.3067C0.318898 31.8404 0.488916 34.3953 0.65893 36.9291C0.78093 37.289 0.831435 37.669 0.807675 38.048C1.0627 40.9829 1.31771 43.9178 1.53023 46.8527C1.65385 47.2123 1.70442 47.5927 1.679 47.9718C2.06154 52.8915 2.44405 57.79 2.95409 62.7519C2.93289 63.1035 2.93289 63.456 2.95409 63.8076C3.27287 65.1589 2.84785 66.6369 3.63416 67.9038C3.82714 68.8504 4.31098 69.7141 5.01898 70.376C5.72698 71.0378 6.62425 71.4651 7.58699 71.5988C10.1797 71.7466 12.7724 71.5988 15.3651 71.5988L28.0099 71.7466C36.5106 71.8944 45.0113 71.7466 53.3632 71.7466H54.8934C55.2547 71.7466 55.701 71.7466 55.8497 71.4087C55.9985 71.0709 55.5947 70.7754 55.3184 70.5642C54.5593 69.9892 53.8485 69.3536 53.1933 68.6639C49.5565 65.2883 47.0933 60.852 46.1589 55.9953C45.5924 53.8043 45.4268 51.5301 45.6701 49.2809C45.7582 47.3066 46.1156 45.3532 46.7327 43.4745C48.1408 38.7686 50.9576 34.6003 54.8084 31.5238C59.8247 27.3618 66.2992 25.3492 72.8086 25.9284C77.5413 26.2957 82.0727 27.9867 85.8785 30.8058C86.2185 31.0381 86.5372 31.397 87.0473 31.2703C87.0473 27.5753 87.0473 23.8803 87.0473 20.1852C87.123 19.1983 86.8766 18.2135 86.3444 17.3767C85.8123 16.54 85.0229 15.896 84.0933 15.5402ZM78.3978 15.9414L49.5804 15.7513C49.1951 15.6884 48.8005 15.7115 48.4253 15.8187C48.05 15.9259 47.7034 16.1147 47.4105 16.3713C47.1176 16.6279 46.8858 16.946 46.7319 17.3025C46.5779 17.659 46.5056 18.0452 46.5202 18.4328C46.5202 22.2123 46.5202 22.7613 46.5202 22.7613H14.3238V13.2598C14.3238 13.2598 14.3238 10.9794 17.384 10.9794H78.3978V15.9414Z" fill="#0E58EA"/>
</g>
<defs>
<clipPath id="clip0_544_1105">
<rect width="91" height="72" fill="white"/>
</clipPath>
</defs>
</svg>
