<svg width="92" height="63" viewBox="0 0 92 63" fill="none" xmlns="http://www.w3.org/2000/svg">
<g id="Capa_1" clip-path="url(#clip0_563_5049)">
<path id="Vector" d="M41.2418 50.276V46.8336H80.6374V3.68304H12.2305V17.4065H9.53516V3.52572C9.53516 0.869878 10.3382 0.055542 12.9689 0.055542H75.2007C76.9914 0.055542 78.7821 0.055542 80.5636 0.055542C82.345 0.055542 83.4435 1.05496 83.4435 2.9705C83.4435 17.8445 83.4435 32.7123 83.4435 47.5739C83.4435 48.8047 83.0373 49.8874 81.8558 50.1927C80.8405 50.4518 72.7269 50.4333 72.4315 50.4333H41.7402C41.5699 50.3953 41.4031 50.3427 41.2418 50.276Z" fill="#0E58EA"/>
<path id="Vector_2" d="M91.7139 57.5772C90.7908 59.428 89.0925 59.6501 87.4033 59.6779C83.6003 59.7426 79.7882 59.6779 75.9852 59.6779H41.251V57.5587L91.7139 57.5772ZM84.4126 58.4379V58.2158H77.0282V58.4379H84.4126Z" fill="#0E58EA"/>
<path id="Vector_3" d="M46.6047 41.9846C45.9958 41.989 45.3923 41.869 44.8312 41.6321C44.27 41.3951 43.7628 41.0461 43.3405 40.6063C42.9182 40.1665 42.5896 39.645 42.3748 39.0738C42.16 38.5026 42.0634 37.8935 42.091 37.2836C42.072 36.6951 42.1731 36.1088 42.3882 35.5609C42.6032 35.0129 42.9278 34.5148 43.3418 34.0971C43.7558 33.6794 44.2507 33.351 44.7959 33.1319C45.3411 32.9129 45.9252 32.8079 46.5124 32.8233C47.7374 32.8396 48.9087 33.3303 49.781 34.1927C50.6533 35.0551 51.159 36.2224 51.1923 37.4502C51.1682 38.6564 50.6752 39.8055 49.8182 40.6526C48.9612 41.4996 47.8081 41.9776 46.6047 41.9846Z" fill="#0E58EA"/>
<path id="Vector_4" d="M37.642 43.5022L36.7189 44.4276C33.6821 42.1141 30.6084 42.0123 27.4885 44.3536L26.5654 43.4282C28.0605 41.9975 30.0518 41.2054 32.1186 41.2192C34.1855 41.233 36.166 42.0517 37.642 43.5022Z" fill="#0E58EA"/>
<path id="Vector_5" d="M36.1095 45.0198L35.4265 45.6768C34.5003 44.8565 33.3071 44.4037 32.0712 44.4037C30.8354 44.4037 29.6421 44.8565 28.7159 45.6768L28.0698 45.0198C29.142 43.9624 30.5857 43.3698 32.0897 43.3698C33.5937 43.3698 35.0374 43.9624 36.1095 45.0198Z" fill="#0E58EA"/>
<path id="Vector_6" d="M29.1772 46.2228C29.9571 45.4663 30.9997 45.0434 32.0849 45.0434C33.17 45.0434 34.2126 45.4663 34.9925 46.2228L34.2632 46.8983C33.8221 46.6341 33.3624 46.4021 32.8879 46.2043C32.4475 46.0495 31.9746 46.0116 31.5152 46.0943C31.0558 46.177 30.6257 46.3775 30.2665 46.6762C30.2296 46.7236 30.1823 46.7618 30.1282 46.7878C30.0742 46.8137 30.0149 46.8268 29.9549 46.8259C29.895 46.825 29.8361 46.8102 29.7829 46.7826C29.7296 46.755 29.6834 46.7155 29.648 46.667C29.5003 46.5095 29.3431 46.3611 29.1772 46.2228Z" fill="#0E58EA"/>
<path id="Vector_7" d="M32.0757 48.999C31.9231 48.9992 31.7719 48.9682 31.6316 48.908C31.4912 48.8479 31.3645 48.7597 31.2592 48.6489C31.1539 48.5381 31.0721 48.407 31.0189 48.2636C30.9657 48.1201 30.9421 47.9673 30.9496 47.8145C30.9458 47.6676 30.9719 47.5215 31.0262 47.385C31.0805 47.2486 31.1619 47.1247 31.2655 47.0208C31.3692 46.9169 31.4928 46.8352 31.6289 46.7808C31.765 46.7263 31.9107 46.7002 32.0572 46.704C32.3627 46.7087 32.6544 46.8318 32.8712 47.0475C33.0881 47.2631 33.2132 47.5546 33.2203 47.8607C33.2179 48.1635 33.0962 48.453 32.8818 48.6662C32.6674 48.8793 32.3777 48.999 32.0757 48.999Z" fill="#0E58EA"/>
<path id="Vector_8" d="M23.0297 36.6729C17.1776 33.9708 11.8517 34.4705 6.99644 38.4496L5.04883 36.4878C6.61183 34.9902 8.46365 33.8285 10.4906 33.0742C12.5176 32.32 14.6769 31.9889 16.8361 32.1015C18.4062 32.1013 19.9656 32.3608 21.4513 32.8696C23.4359 33.6469 23.1313 33.1194 23.0759 35.1738C23.0298 35.5624 23.0297 36.0251 23.0297 36.6729Z" fill="#0E58EA"/>
<path id="Vector_9" d="M8.26123 39.5786C12.258 35.3866 18.9593 35.5532 22.9469 38.283C23.1407 38.4218 23.0946 38.0609 23.03 40.8186C21.03 39.3459 18.6163 38.5458 16.1348 38.5329C13.6418 38.5306 11.243 39.4879 9.43352 41.2072L8.26123 39.5786Z" fill="#0E58EA"/>
<path id="Vector_10" d="M11.9624 43.715L10.5317 42.2622C13.3932 39.0419 19.153 39.0511 22.1621 42.3362L20.7868 43.4467C19.5572 42.4418 17.9808 41.9661 16.4023 42.1234C15.591 42.0448 14.7725 42.1467 14.005 42.4219C13.2375 42.697 12.5401 43.1385 11.9624 43.715Z" fill="#0E58EA"/>
<path id="Vector_11" d="M16.2363 43.2061C16.859 43.1937 17.4613 43.4292 17.9111 43.8611C18.3609 44.293 18.6217 44.886 18.6362 45.5103C18.6487 45.8189 18.5987 46.1269 18.4891 46.4156C18.3795 46.7043 18.2127 46.9678 17.9988 47.19C17.7848 47.4123 17.5282 47.5888 17.2443 47.7089C16.9604 47.8289 16.6552 47.89 16.3471 47.8885C16.038 47.8873 15.7321 47.8251 15.447 47.7054C15.1619 47.5857 14.9031 47.4108 14.6854 47.1908C14.4677 46.9709 14.2953 46.71 14.1782 46.4233C14.061 46.1365 14.0013 45.8294 14.0025 45.5195C13.9975 44.9172 14.2289 44.337 14.6468 43.9042C15.0647 43.4714 15.6356 43.2206 16.2363 43.2061Z" fill="#0E58EA"/>
<path id="Vector_12" d="M37.0327 29.2606H38.3527C40.1988 29.2606 40.8818 30.1027 40.891 31.9072C42.2288 31.0935 43.7304 30.5884 45.2869 30.4283C46.8435 30.2683 48.4161 30.4573 49.8907 30.9818C51.7779 31.7839 53.6096 32.7113 55.3736 33.7579L58.2812 31.0466C55.4946 28.3263 51.8521 26.661 47.9763 26.3352C44.1005 26.0094 40.2322 27.0435 37.0327 29.2606Z" fill="#0E58EA"/>
<path id="Vector_13" d="M41.251 57.2719H92.0185C91.8893 57.1053 91.8616 57.0035 91.7508 56.9295C89.0832 55.1898 86.4433 53.4408 83.7019 51.7288C83.0869 51.4632 82.4239 51.3278 81.7542 51.3309C80.1758 51.3309 73.6591 51.3309 71.9884 51.3309C58.5488 51.3309 56.2505 51.3309 42.8109 51.3309H41.2787" fill="#0E58EA"/>
<path id="Vector_14" d="M34.4849 22.7089C34.4849 24.319 34.4849 25.9662 34.4849 27.6967C43.3369 21.3023 51.312 22.1444 59.9609 28.7239L62.7301 26.0865C59.1508 22.3147 54.3707 19.9134 49.2144 19.2968C44.058 18.6802 38.8487 19.8869 34.4849 22.7089Z" fill="#0E58EA"/>
<path id="Vector_15" d="M26.6206 17.7118C28.2913 17.7118 29.9713 17.7118 31.6512 17.7118C33.3312 17.7118 33.9496 18.9333 34.3557 20.1086C44.5831 15.204 55.0504 16.1109 65.0655 23.7175L68.8315 20.016C56.6012 7.70844 37.4018 8.67084 26.6206 17.7118Z" fill="#0E58EA"/>
<path id="Vector_16" d="M40.1804 33.0917C40.1804 31.2409 39.4973 30.4543 37.642 30.4173C34.3098 30.3618 30.9776 30.4913 27.6454 30.4728C25.5224 30.4728 24.747 31.1484 24.7378 33.249V46.667C24.7378 51.2199 24.7378 55.7635 24.7378 60.3164C24.7378 62.0839 25.5778 62.9723 27.3223 62.9908C30.7099 62.9908 34.1067 62.9908 37.4758 62.9908C39.3219 62.9908 40.1434 62.1209 40.1527 60.2701L40.1804 33.0917ZM34.4667 60.7421C34.4667 60.9016 34.4035 61.0546 34.291 61.1674C34.1785 61.2802 34.0259 61.3436 33.8667 61.3436H30.8115C30.6523 61.3436 30.4997 61.2802 30.3872 61.1674C30.2747 61.0546 30.2114 60.9016 30.2114 60.7421V60.0943C30.2114 59.9348 30.2747 59.7818 30.3872 59.669C30.4997 59.5562 30.6523 59.4928 30.8115 59.4928H33.8667C34.0259 59.4928 34.1785 59.5562 34.291 59.669C34.4035 59.7818 34.4667 59.9348 34.4667 60.0943V60.7421ZM38.8419 58.114H26.0485V34.9795H38.8789L38.8419 58.114Z" fill="#0E58EA"/>
<path id="Vector_17" d="M33.2666 21.9223C33.1835 19.6921 32.2235 18.85 29.9621 18.8223C27.7006 18.7945 25.3469 18.8223 22.9839 18.8223H4.26448C3.75922 18.8082 3.25356 18.8268 2.75067 18.8778C2.08035 18.9356 1.45399 19.2361 0.988552 19.7232C0.523115 20.2102 0.250454 20.8505 0.221535 21.5244C0.110769 23.9489 -0.00921772 26.3826 1.27382e-05 28.8071C1.27382e-05 33.2397 0.166162 37.663 0.203084 42.0956C0.203084 47.25 0.203084 52.4044 0.203084 57.568C0.203084 59.8722 1.24612 60.9179 3.5722 60.9272H23.1869V56.1892H2.77839V23.5325H30.8851V29.0292L33.285 29.1403C33.285 26.5862 33.3404 24.245 33.2666 21.9223ZM13.4119 58.1417C13.4119 58.0628 13.4274 57.9845 13.4575 57.9116C13.4877 57.8386 13.5319 57.7723 13.5876 57.7164C13.6433 57.6606 13.7094 57.6163 13.7822 57.586C13.855 57.5558 13.9331 57.5402 14.0118 57.5402H19.9932C20.072 57.5402 20.15 57.5558 20.2228 57.586C20.2956 57.6163 20.3617 57.6606 20.4174 57.7164C20.4732 57.7723 20.5174 57.8386 20.5475 57.9116C20.5777 57.9845 20.5932 58.0628 20.5932 58.1417V59.2245C20.5932 59.384 20.53 59.537 20.4174 59.6498C20.3049 59.7626 20.1523 59.8259 19.9932 59.8259H14.0118C13.8527 59.8259 13.7001 59.7626 13.5876 59.6498C13.4751 59.537 13.4119 59.384 13.4119 59.2245V58.1417ZM6.83055 57.4847C7.01311 57.4847 7.19157 57.539 7.34337 57.6407C7.49516 57.7424 7.61348 57.8869 7.68334 58.056C7.7532 58.2251 7.77146 58.4111 7.73585 58.5906C7.70023 58.7701 7.61234 58.935 7.48325 59.0645C7.35416 59.1939 7.18969 59.282 7.01063 59.3177C6.83158 59.3534 6.64597 59.3351 6.47731 59.265C6.30864 59.195 6.16448 59.0764 6.06305 58.9242C5.96163 58.772 5.9075 58.5931 5.9075 58.4101C5.9075 58.1647 6.00476 57.9293 6.17787 57.7558C6.35097 57.5822 6.58574 57.4847 6.83055 57.4847ZM16.7902 22.0611C16.5963 22.0629 16.4062 22.007 16.2441 21.9003C16.082 21.7936 15.9552 21.6411 15.8797 21.462C15.8042 21.283 15.7835 21.0855 15.8202 20.8946C15.857 20.7037 15.9494 20.528 16.0859 20.3899C16.2223 20.2518 16.3966 20.1575 16.5867 20.1189C16.7767 20.0803 16.9739 20.0992 17.1532 20.1731C17.3326 20.2471 17.4859 20.3728 17.5939 20.5343C17.7018 20.6958 17.7594 20.8858 17.7594 21.0802C17.7594 21.3388 17.6576 21.5869 17.4761 21.7706C17.2946 21.9542 17.0481 22.0587 16.7902 22.0611Z" fill="#0E58EA"/>
</g>
<defs>
<clipPath id="clip0_563_5049">
<rect width="92" height="63" fill="white"/>
</clipPath>
</defs>
</svg>
