<svg width="95" height="72" viewBox="0 0 95 72" fill="none" xmlns="http://www.w3.org/2000/svg">
<g id="Capa_1" clip-path="url(#clip0_546_1117)">
<path id="Vector" d="M45.8002 12.77C45.8002 14.11 45.8002 15.44 45.8002 16.77C45.8002 17.24 45.6902 17.41 45.1802 17.45C41.248 17.699 37.4071 18.7434 33.8902 20.52C33.5602 20.69 33.4202 20.62 33.2602 20.33C31.8502 17.88 30.4502 15.42 29.0102 12.98C28.7202 12.48 29.0802 12.44 29.3502 12.31C32.9404 10.4737 36.7924 9.20207 40.7702 8.53998C42.1402 8.30998 43.5302 8.23 44.9002 8.06C45.5502 7.99 45.8202 8.05998 45.7802 8.84998C45.7202 10.15 45.7802 11.46 45.7802 12.77H45.8002Z" fill="#0E58EA"/>
<path id="Vector_2" d="M48.6099 12.7C48.6099 11.33 48.6099 9.97002 48.6099 8.60002C48.6099 8.21002 48.6099 8.03004 49.1399 8.06004C54.7152 8.34326 60.1677 9.80181 65.1399 12.34C65.4799 12.51 65.5399 12.68 65.3399 13.03C63.9265 15.45 62.5265 17.88 61.1399 20.32C60.9799 20.59 60.8699 20.71 60.5099 20.53C57.0248 18.7647 53.2182 17.7238 49.3199 17.47C48.7599 17.47 48.5999 17.24 48.6199 16.71C48.6199 15.37 48.6199 14.03 48.6199 12.71L48.6099 12.7Z" fill="#0E58EA"/>
<path id="Vector_3" d="M12.7099 45.78C11.3499 45.78 9.97991 45.78 8.61991 45.78C8.11991 45.78 8.0299 45.63 8.0499 45.19C8.34945 39.6123 9.82146 34.1605 12.3699 29.19C12.5499 28.84 12.6999 28.86 12.9899 29.03C15.4199 30.44 17.8499 31.85 20.2899 33.23C20.6199 33.42 20.6899 33.56 20.5099 33.92C18.7659 37.3884 17.7452 41.175 17.5099 45.05C17.5099 45.67 17.2399 45.79 16.6699 45.77C15.3599 45.77 14.0499 45.77 12.7399 45.77L12.7099 45.78Z" fill="#0E58EA"/>
<path id="Vector_4" d="M81.61 45.79C80.3 45.79 78.99 45.79 77.69 45.79C77.21 45.79 76.97 45.73 76.93 45.16C76.6847 41.2403 75.6508 37.4105 73.89 33.9C73.67 33.46 73.89 33.4 74.19 33.25C76.59 31.87 79 30.49 81.39 29.08C81.82 28.82 81.92 28.98 82.09 29.32C84.3246 33.659 85.7159 38.3824 86.19 43.24C86.27 44.07 86.74 45.17 86.19 45.66C85.64 46.15 84.64 45.78 83.83 45.79H81.61Z" fill="#0E58EA"/>
<path id="Vector_5" d="M26.2799 14.09C26.5299 14.09 26.5598 14.28 26.6398 14.41C28.0598 16.86 29.4698 19.33 30.9098 21.77C31.1698 22.2 30.9098 22.27 30.6298 22.43C27.6391 24.4495 25.029 26.9819 22.9198 29.91C22.0698 31.1 22.0598 31.08 20.7498 30.32C18.6998 29.13 16.6599 27.93 14.5899 26.76C14.1399 26.51 14.0098 26.35 14.3298 25.86C17.3266 21.2815 21.2387 17.3728 25.8198 14.38L26.2799 14.09Z" fill="#0E58EA"/>
<path id="Vector_6" d="M80.17 26.04C79.01 24.26 75.17 19.23 73.17 17.88C73.1179 17.8251 73.061 17.7749 73 17.73C71.5579 16.4848 70.0382 15.3325 68.45 14.28C68.09 14.03 67.92 14.09 67.71 14.46C66.34 16.87 64.96 19.28 63.55 21.67C63.32 22.06 63.43 22.22 63.75 22.43C64.36 22.84 64.94 23.3 65.54 23.73L65.66 23.81C66.22 24.43 67.2 25.3 67.94 26.02C69.3907 27.502 70.7531 29.0681 72.02 30.71C72.19 30.96 72.29 31.1 72.64 30.9C75.08 29.47 77.54 28.06 80 26.66C80.26 26.5 80.39 26.38 80.17 26.04Z" fill="#0E58EA"/>
<path id="Vector_7" d="M3.80023 52.18C3.59289 50.4445 3.49602 48.6977 3.51022 46.95C3.52211 35.5371 8.0209 24.5864 16.0357 16.4613C24.0505 8.3361 34.9385 3.68799 46.3502 3.52001C72.2002 3.09001 90.9202 23.88 90.8902 48.42C90.8902 49.65 90.7902 50.88 90.6602 52.09C91.7035 52.2262 92.7171 52.5336 93.6602 53C93.7402 53.11 93.8402 53.23 93.9102 53.35L93.9702 53.47C94.7843 47.0854 94.2838 40.6017 92.4994 34.4177C90.715 28.2337 87.6844 22.4801 83.594 17.5107C79.5036 12.5414 74.4398 8.46126 68.7142 5.52135C62.9885 2.58145 56.722 0.843911 50.3 0.415547C43.8779 -0.0128168 37.4361 0.877059 31.3708 3.03048C25.3054 5.18389 19.7446 8.5553 15.0305 12.9374C10.3163 17.3195 6.54838 22.6196 3.95844 28.5119C1.36849 34.4041 0.0112546 40.7638 -0.0297852 47.2C-0.025398 49.3009 0.121609 51.3991 0.410217 53.48C0.517776 53.2671 0.652231 53.0688 0.810242 52.89C1.77018 52.5191 2.77603 52.2802 3.80023 52.18Z" fill="#0E58EA"/>
<path id="Vector_8" d="M94.34 54.45C94.2459 54.1065 94.1221 53.772 93.97 53.45L93.91 53.33C93.84 53.21 93.74 53.09 93.66 52.98C92.7169 52.5137 91.7032 52.2062 90.66 52.07C89.6963 51.9313 88.7236 51.8645 87.75 51.87C78.8633 51.87 69.9767 51.87 61.09 51.87C60.82 52.07 60.55 52.27 60.27 52.45L58.32 53.83L57.56 54.37L57.13 54.67L55.55 55.78C55.3 55.97 55.04 56.15 54.76 56.33C54.0988 56.7514 53.4068 57.1224 52.69 57.44C51.8352 57.8177 50.934 58.0801 50.01 58.22C49.0915 58.4093 48.1575 58.5131 47.22 58.53C46.8448 58.5489 46.4687 58.522 46.1 58.45C45.368 58.3989 44.6399 58.3021 43.92 58.16C43.1993 57.9825 42.4938 57.7485 41.81 57.46C40.9777 57.1453 40.1908 56.7216 39.47 56.2C39.32 56.1 39.17 56 39.03 55.89C38.32 55.39 37.6 54.89 36.89 54.39L36.1 53.84C35.41 53.32 34.63 52.84 34 52.3C33.862 52.1656 33.7033 52.0541 33.53 51.97L33.36 51.87H12.52C9.61 51.8083 6.69884 51.9085 3.79998 52.17C2.77238 52.2694 1.76311 52.5082 0.79998 52.88C0.641969 53.0587 0.507545 53.257 0.399986 53.47C0.401889 53.4933 0.401889 53.5167 0.399986 53.54C0.2328 53.8214 0.114455 54.1291 0.0499802 54.45C0.0499802 55.06 0.0499802 55.67 0.0499802 56.28C0.0499802 56.89 0.0499802 57.56 0.0499802 58.2C0.0499802 58.84 0.0499802 59.48 0.0499802 60.13C0.0499802 60.78 0.0499802 61.41 0.0499802 62.06C0.0499802 62.71 0.0499802 63.35 0.0499802 63.99C0.0499802 64.63 0.0499802 65.28 0.0499802 65.93C0.0499802 66.58 -0.19002 67.24 0.29998 67.85C0.40998 68.2 0.529977 68.54 0.639977 68.85C0.519977 69.4 1.03998 69.7 1.54998 70C1.78998 70.36 2.44997 70.4 2.69997 70.76C3.58104 71.078 4.50444 71.2633 5.43996 71.31H89.17C89.7313 71.4163 90.3122 71.3319 90.82 71.07C91.7434 70.7176 92.6018 70.2141 93.36 69.58C93.5248 69.5367 93.6696 69.4378 93.77 69.3C94.0871 68.81 94.2952 68.2575 94.38 67.68C94.38 67.0733 94.38 66.4633 94.38 65.85C94.38 65.21 94.38 64.57 94.38 63.94C94.38 63.31 94.38 62.65 94.38 62C94.38 61.35 94.38 60.72 94.38 60.07C94.38 59.42 94.38 58.79 94.38 58.14C94.38 57.49 94.38 56.87 94.38 56.23C94.4044 55.6364 94.3911 55.0419 94.34 54.45ZM43.46 63.93C31.2533 63.93 19.0433 63.93 6.82998 63.93H6.56997C5.33997 63.93 3.56997 64.4 3.47997 62.62C3.38997 60.84 4.60998 60.97 5.76998 61.08C6.08998 61.08 6.40996 61.14 6.68996 61.14C12.99 61.07 19.29 61.14 25.59 61.14C31.59 61.14 37.59 61.14 43.59 61.14C44.78 61.14 46.53 60.62 46.45 62.55C46.37 64.48 44.68 63.93 43.46 63.93ZM70.12 63.93C69 63.93 68.03 63.87 67.97 62.59C67.91 61.31 68.75 61.12 69.97 61.17C71.19 61.22 72.16 61.08 72.18 62.43C72.2 63.78 71.32 63.93 70.12 63.91V63.93ZM78.86 63.93C77.61 63.93 76.48 63.93 76.43 62.45C76.38 60.97 77.49 61.23 78.51 61.18C79.53 61.13 80.62 60.98 80.65 62.37C80.67 63.44 80.17 63.92 78.89 63.9L78.86 63.93ZM86.94 64C85.68 64 84.94 63.66 84.94 62.48C84.94 61.3 85.86 61.08 87 61.13C87.5422 61.0452 88.0972 61.1512 88.57 61.43C88.7311 61.5664 88.8543 61.7421 88.9279 61.94C89.0015 62.1379 89.0229 62.3514 88.99 62.56C88.99 63.5 88.42 63.85 87.61 63.96C87.3871 63.9778 87.1633 63.9811 86.94 63.97V64Z" fill="#0E58EA"/>
<path id="Vector_9" d="M66.4699 29.43C66.4199 29.49 66.3599 29.57 66.2899 29.64L63.4699 32.47C63.3199 32.62 63.2099 32.66 63.0299 32.47C61.3892 30.8546 59.5066 29.5051 57.4499 28.47C55.4471 27.4657 53.3022 26.7743 51.0899 26.42C48.9333 26.0705 46.7379 26.0301 44.5699 26.3C40.5353 26.7809 36.7117 28.3657 33.5199 30.88C32.9199 31.34 32.3699 31.88 31.8099 32.37C31.6199 32.54 31.4999 32.6 31.2999 32.37C30.3699 31.42 29.4299 30.47 28.4799 29.54C28.2999 29.35 28.3099 29.24 28.4799 29.06C31.06 26.5444 34.121 24.5751 37.4799 23.27C39.6152 22.4307 41.8506 21.8727 44.1299 21.61C46.0779 21.405 48.042 21.405 49.9899 21.61C52.3588 21.833 54.6885 22.3641 56.9199 23.19C59.3192 24.0867 61.576 25.3262 63.6199 26.87C64.5362 27.5649 65.411 28.3128 66.2399 29.11C66.2987 29.144 66.3496 29.1901 66.3893 29.2453C66.4289 29.3005 66.4564 29.3634 66.4699 29.43Z" fill="#0E58EA"/>
<path id="Vector_10" d="M60.6898 35.2L60.4998 35.44C59.5498 36.44 58.5898 37.34 57.6498 38.3C57.4498 38.5 57.3498 38.44 57.1798 38.3C55.4893 36.6935 53.4283 35.529 51.1798 34.91C49.1949 34.3556 47.1119 34.2464 45.0798 34.59C42.2827 35.0417 39.6847 36.3198 37.6198 38.26C37.4298 38.43 37.3298 38.46 37.1298 38.26C36.2032 37.3066 35.2632 36.3666 34.3098 35.44C34.1198 35.26 34.1098 35.16 34.3098 34.97C36.3071 33.0668 38.6962 31.623 41.3098 30.74C43.984 29.8384 46.8253 29.5439 49.6275 29.8777C52.4297 30.2116 55.1224 31.1654 57.5098 32.67C58.5897 33.3418 59.5953 34.1262 60.5098 35.01C60.5298 35.06 60.6098 35.12 60.6898 35.2Z" fill="#0E58EA"/>
<path id="Vector_11" d="M54.8902 41.04C54.8286 41.1209 54.7618 41.1977 54.6902 41.27C53.7502 42.21 52.8002 43.14 51.8702 44.1C51.6702 44.3 51.5702 44.26 51.3702 44.1C50.2941 43.1511 48.9134 42.6192 47.4788 42.6009C46.0441 42.5825 44.6503 43.0789 43.5502 44C43.2702 44.24 43.1102 44.21 42.8602 44C42.0002 43.11 41.1102 42.23 40.2202 41.36C39.9702 41.11 39.9702 40.97 40.2202 40.73C41.6095 39.4562 43.3216 38.588 45.1702 38.22C46.7224 37.8859 48.3298 37.9047 49.8737 38.2751C51.4176 38.6455 52.8586 39.358 54.0902 40.36C54.3002 40.52 54.4902 40.71 54.6802 40.88C54.8702 41.05 54.7902 40.97 54.8902 41.04Z" fill="#0E58EA"/>
<path id="Vector_12" d="M52.7902 49.59C52.8253 48.9442 52.6366 48.306 52.2559 47.7831C51.8751 47.2603 51.3257 46.8848 50.7002 46.72L68.7702 35.61L68.8202 35.69L52.7902 49.59Z" fill="#0E58EA"/>
<path id="Vector_13" d="M47.4098 46.85C46.5656 46.846 45.7392 47.093 45.0356 47.5596C44.332 48.0262 43.7829 48.6913 43.458 49.4705C43.1331 50.2497 43.047 51.1079 43.2108 51.9361C43.3745 52.7643 43.7806 53.5252 44.3776 54.1222C44.9746 54.7192 45.7355 55.1253 46.5637 55.289C47.3919 55.4528 48.2501 55.3667 49.0293 55.0418C49.8086 54.7169 50.4737 54.1678 50.9402 53.4642C51.4068 52.7606 51.6538 51.9342 51.6499 51.09C51.6525 50.5324 51.5446 49.9799 51.3325 49.4643C51.1204 48.9486 50.8081 48.4802 50.4139 48.086C50.0196 47.6917 49.5512 47.3795 49.0356 47.1673C48.5199 46.9552 47.9674 46.8473 47.4098 46.85ZM47.4098 53.45C47.0983 53.4487 46.7901 53.3853 46.5034 53.2634C46.2166 53.1415 45.9572 52.9635 45.7402 52.7399C45.5231 52.5164 45.3529 52.2518 45.2395 51.9616C45.1261 51.6714 45.0719 51.3615 45.0798 51.05C45.0878 50.5838 45.2337 50.1303 45.4991 49.7469C45.7645 49.3635 46.1376 49.0673 46.5712 48.8957C47.0048 48.7241 47.4795 48.6849 47.9354 48.7829C48.3913 48.8808 48.808 49.1117 49.1328 49.4462C49.4576 49.7808 49.676 50.2041 49.7605 50.6627C49.8449 51.1213 49.7916 51.5947 49.6073 52.023C49.423 52.4514 49.1159 52.8155 48.7248 53.0695C48.3337 53.3234 47.8761 53.4558 47.4098 53.45Z" fill="#0E58EA"/>
</g>
<defs>
<clipPath id="clip0_546_1117">
<rect width="94.39" height="71.4" fill="white"/>
</clipPath>
</defs>
</svg>
