<svg width="93" height="59" viewBox="0 0 93 59" fill="none" xmlns="http://www.w3.org/2000/svg">
<g clip-path="url(#clip0_706_1428)">
<path d="M23.25 39.8142C23.25 38.2496 23.25 38.2052 24.8096 38.2052C26.3693 38.2052 26.3582 38.2052 26.3582 39.8364C26.3582 41.4676 26.2802 41.4343 24.7651 41.4343C23.25 41.4343 23.2611 41.4787 23.25 39.8142Z" fill="#0E58EA"/>
<path d="M60.4251 39.8142C60.4251 39.0263 60.258 38.2385 61.5392 38.2718C63.4107 38.2718 63.511 38.3384 63.5333 39.8253C63.5556 41.3122 63.4442 41.512 62.241 41.5231C60.4808 41.5009 60.4474 41.4676 60.4251 39.8142Z" fill="#0E58EA"/>
<path d="M32.5296 39.8142C32.5296 41.29 32.3625 41.4454 30.9031 41.4454C29.4437 41.4454 29.4326 41.3011 29.4326 39.7809C29.4326 38.2607 29.5886 38.2052 31.0034 38.2052C32.4182 38.2052 32.5296 38.405 32.5296 39.8142Z" fill="#0E58EA"/>
<path d="M69.7385 39.9362C69.7385 41.3344 69.6048 41.4787 68.268 41.4898C66.9312 41.5009 66.6415 41.3344 66.6526 39.7476C66.6526 38.3827 66.7863 38.2496 68.1566 38.2496C69.5269 38.2496 69.7385 38.416 69.7385 39.9362Z" fill="#0E58EA"/>
<path d="M38.7127 39.8142C38.7127 41.2457 38.501 41.4454 37.0973 41.4454C35.6936 41.4454 35.6045 41.2124 35.6045 39.8808C35.6045 38.5492 35.8384 38.1941 37.3201 38.2052C38.5455 38.2607 38.7238 38.4271 38.7127 39.8142Z" fill="#0E58EA"/>
<path d="M57.3061 39.9252C57.3061 41.3011 57.139 41.4787 55.8467 41.4898C54.5544 41.5009 54.1756 41.2123 54.1868 39.7476C54.1979 38.2829 54.3873 38.2496 55.7353 38.2496C57.0833 38.2496 57.2949 38.416 57.3061 39.9252Z" fill="#0E58EA"/>
<path d="M66.8307 20.2955C66.1066 18.5644 65.0483 18.3647 63.7894 19.7185L63.7226 19.785C63.1656 20.5729 62.6085 20.5507 61.9067 19.9293C57.655 16.2292 52.1661 14.2497 46.5218 14.381C44.958 14.329 43.3931 14.4444 41.854 14.725C36.5823 15.7702 31.7957 18.4969 28.2181 22.4926C26.5248 24.3457 26.5137 24.3013 28.4075 25.9103C28.8866 26.332 29.2096 26.2987 29.5884 25.8548C29.9672 25.411 30.6022 24.6675 31.1369 24.1016C34.6999 20.3424 39.5301 18.0248 44.7021 17.5927C49.8741 17.1607 55.0244 18.6446 59.1661 21.7602C60.5698 22.8699 60.5587 22.8144 59.3667 24.1792C58.7874 24.845 58.3195 24.9671 57.5842 24.4011C55.5691 22.8064 53.2312 21.6652 50.7312 21.0561C48.2311 20.447 45.6283 20.3843 43.1017 20.8725C39.9753 21.4542 37.054 22.8346 34.6239 24.8783C34.479 24.9687 34.3569 25.0911 34.2672 25.236C34.1774 25.3808 34.1223 25.5444 34.1061 25.7139C34.09 25.8834 34.1132 26.0543 34.174 26.2134C34.2348 26.3726 34.3316 26.5156 34.4568 26.6315C34.6573 26.8646 34.8801 27.0865 35.0583 27.3306C35.5374 28.0075 36.0164 28.0519 36.6514 27.486C38.0721 26.2137 39.7407 25.2467 41.5532 24.6453C43.8107 23.8588 46.2237 23.6187 48.5928 23.9448C50.9619 24.2708 53.2191 25.1538 55.1779 26.5206C55.5121 26.7314 55.9911 26.9866 55.8352 27.4416C55.5055 28.1899 54.9683 28.8289 54.2867 29.2836C53.8411 29.6498 53.4289 29.0839 53.0501 28.8508C51.2713 27.6651 49.2012 26.9858 47.0632 26.886C44.9252 26.7863 42.8004 27.27 40.9182 28.2849C40.6508 28.4181 40.2386 28.529 40.3166 28.8841C40.5167 29.7447 40.9481 30.5348 41.5643 31.17C41.9654 31.6028 42.5113 31.17 42.968 30.9259C44.2468 30.3584 45.6435 30.1045 47.0411 30.1856C48.4386 30.2667 49.7963 30.6804 51.0002 31.392C51.6464 31.747 51.7578 32.0688 51.1785 32.6015C50.5667 33.1386 50.0004 33.725 49.4852 34.3547C49.2622 34.7205 48.908 34.9882 48.4943 35.1036C48.0806 35.2189 47.6383 35.1734 47.2571 34.9761C46.8356 34.8226 46.3774 34.7993 45.9425 34.9095C45.0208 35.0249 44.1551 35.4134 43.4579 36.0249C42.7606 36.6363 42.2639 37.4423 42.0322 38.3384C41.7443 39.2524 41.7379 40.2315 42.0139 41.1492C42.2899 42.067 42.8357 42.8813 43.5807 43.4871C44.2927 44.1045 45.1856 44.4767 46.1268 44.5487C47.068 44.6206 48.0074 44.3885 48.8056 43.8866C49.6556 43.4091 50.3303 42.6735 50.7311 41.7873C51.1319 40.901 51.2379 39.9103 51.0337 38.9598C50.898 38.5762 50.8784 38.1613 50.9774 37.7667C51.0764 37.3722 51.2897 37.0153 51.5907 36.7405C54.3535 33.9774 57.0606 31.1922 59.7789 28.3515C62.007 26.0324 64.235 23.691 66.4631 21.3718C66.7973 21.1277 67.0424 20.7948 66.8307 20.2955ZM46.3993 41.4454C46.0012 41.4121 45.6302 41.2311 45.3598 40.9383C45.0894 40.6454 44.9393 40.262 44.9393 39.8641C44.9393 39.4662 45.0894 39.0828 45.3598 38.79C45.6302 38.4971 46.0012 38.3161 46.3993 38.2829C46.8129 38.2877 47.2094 38.4483 47.509 38.7323C47.8087 39.0164 47.9893 39.4029 48.0146 39.8142C47.9889 40.2346 47.811 40.6316 47.514 40.9315C47.217 41.2314 46.821 41.4139 46.3993 41.4454Z" fill="#0E58EA"/>
<path d="M92.967 50.2005C92.889 48.1365 92.5882 47.837 90.5718 47.837H89.6472C88.2992 47.837 88.2992 47.837 88.2992 46.4832C88.2992 33.3523 88.2992 20.2252 88.2992 7.10174C88.3365 6.4261 88.2954 5.74845 88.1766 5.08221C87.4302 1.75326 85.0685 0 81.4033 0H11.5084H10.3944C9.64344 0.0301072 8.90879 0.227288 8.24431 0.577039C5.61517 1.91971 4.66823 4.16119 4.66823 7.01299C4.66823 20.1068 4.66823 33.2007 4.66823 46.2945C4.66823 46.5608 4.66823 46.8383 4.66823 47.1046C4.66823 47.6261 4.46771 47.8369 3.94411 47.8259C3.20206 47.7823 2.45808 47.7823 1.71603 47.8259C0.524013 47.9368 0.0783969 48.3918 0.0449757 49.5791C-0.016294 50.7323 -0.016294 51.888 0.0449757 53.0412C0.0620009 53.8485 0.240858 54.6442 0.57104 55.3817C0.901223 56.1191 1.37607 56.7834 1.96767 57.3354C2.55927 57.8875 3.25568 58.3162 4.01598 58.5963C4.77629 58.8765 5.58513 59.0024 6.395 58.9667H86.8064C88.1087 58.9848 89.3808 58.5751 90.4259 57.8008C91.471 57.0266 92.2309 55.931 92.5882 54.6835C92.9589 53.2197 93.0869 51.7054 92.967 50.2005ZM80.8797 47.8259C76.067 47.8259 71.2581 47.8259 66.4529 47.8259C65.9026 47.8236 65.3537 47.8794 64.8152 47.9923H63.6009C62.4502 47.9576 61.3125 48.2419 60.3145 48.8134C59.7297 49.1733 59.0709 49.3971 58.3872 49.4681H33.0317C31.9011 49.4866 30.7873 49.1949 29.8121 48.6248C28.8639 48.0839 27.7852 47.8114 26.6928 47.837C21.5014 47.837 16.3211 47.837 11.0962 47.837C11.0962 47.6372 11.0962 47.4375 11.0962 47.2488C11.0962 34.5101 11.0962 21.7713 11.0962 9.03255C11.0962 7.03519 11.0962 7.03517 12.9567 7.03517H79.9884C80.7683 7.65657 81.1025 8.73294 81.1025 10.5195V46.7162C81.0802 47.3487 81.0579 47.6705 80.8797 47.8259Z" fill="#0E58EA"/>
</g>
<defs>
<clipPath id="clip0_706_1428">
<rect width="93" height="59" fill="white"/>
</clipPath>
</defs>
</svg>
