<svg width="91" height="59" viewBox="0 0 91 59" fill="none" xmlns="http://www.w3.org/2000/svg">
<g id="Capa_1" clip-path="url(#clip0_546_1902)">
<path id="Vector" d="M90.9781 50.1858C90.9028 48.1265 90.6106 47.8291 88.6271 47.8291H87.7417C86.4135 47.8291 86.4135 47.8291 86.4135 46.4772V7.10181C86.4453 6.42329 86.4037 5.74327 86.2895 5.07401C85.5545 1.77996 83.2435 0 79.6484 0H11.2678C10.9004 0 10.5373 1.37485e-06 10.1699 0.0225325C9.43452 0.0432307 8.71422 0.239242 8.06686 0.594818C5.4857 1.94669 4.56038 4.1998 4.56481 7.03422C4.60023 20.1023 4.56481 33.2154 4.56481 46.306C4.56481 46.5763 4.56481 46.8512 4.56481 47.1216C4.59137 47.6398 4.37001 47.8516 3.85201 47.8336C3.11413 47.8006 2.375 47.8111 1.63832 47.8651C0.469501 47.9688 0.040048 48.4284 0.000201698 49.6135C-0.0396446 50.7987 -0.057354 51.9252 0.000201698 53.0743C0.212715 56.6207 2.72746 58.9955 6.19851 58.9955H84.8727C86.1476 59.0168 87.3937 58.6085 88.417 57.8343C89.4403 57.0601 90.1835 55.9633 90.5309 54.7146C90.9266 53.2409 91.0778 51.7102 90.9781 50.1858ZM7.61969 6.97113C7.61969 4.31696 8.7531 3.17238 11.4361 3.15886C16.1689 3.15886 20.8974 3.15886 25.6302 3.15886H78.9179C82.3978 3.15886 83.3453 4.14122 83.3453 7.66509C83.3453 20.5829 83.3453 33.5008 83.3453 46.4186C83.3453 47.7209 83.2745 47.802 81.9861 47.802C76.3235 47.802 70.6565 47.802 64.9939 47.7705C63.788 47.7347 62.5969 48.0472 61.5582 48.6717C60.6937 49.1925 59.7025 49.4548 58.6982 49.4288H32.3244C31.2187 49.4451 30.1298 49.152 29.1765 48.5816C28.2507 48.0372 27.1949 47.7642 26.1261 47.793C20.3705 47.793 14.6149 47.793 8.82836 47.8201C7.85434 47.8201 7.57542 47.5136 7.57542 46.5493C7.60789 33.3581 7.62264 20.1654 7.61969 6.97113ZM87.9453 52.484C87.7195 54.7371 86.5684 55.742 84.0847 55.742C71.2217 55.742 58.3617 55.742 45.5046 55.742H7.72152C7.22123 55.742 6.72094 55.742 6.22507 55.742C5.72193 55.729 5.22798 55.6019 4.77924 55.3699C4.33049 55.1379 3.93827 54.807 3.63115 54.4011C3.32404 53.9953 3.10977 53.5248 3.00399 53.024C2.8982 52.5231 2.90356 52.0046 3.01966 51.5061C3.0905 51.1817 3.23217 51.0285 3.55094 51.0555H4.25047C11.2147 51.0555 18.1745 51.0555 25.1388 51.0555C26.3441 51.0112 27.5362 51.3244 28.57 51.9568C29.4609 52.4929 30.4843 52.7572 31.5186 52.7183C40.7157 52.7183 49.9113 52.7183 59.1055 52.7183C60.4077 52.7398 61.6923 52.4102 62.8289 51.763C63.6088 51.3044 64.4962 51.0693 65.3968 51.0826C72.4805 51.0826 79.5909 51.0826 86.688 51.0826C87.8745 51.042 88.0649 51.2718 87.9453 52.502V52.484Z" fill="#0E58EA"/>
<path id="Vector_2" d="M45.4071 6.32223H77.3815C80.0601 6.32223 80.37 6.63316 80.37 9.3459V42.9218C80.37 44.6071 79.2941 45.256 77.7844 44.49C77.6604 44.4369 77.5534 44.3497 77.4752 44.2384C77.397 44.127 77.3508 43.9957 77.3417 43.8591C77.3151 43.458 77.2708 43.0525 77.2664 42.6469V11.2791C77.2664 9.52616 77.2664 9.52165 75.5486 9.52165H15.2922C13.6142 9.52165 13.6142 9.52165 13.6142 11.1935C13.6142 21.8402 13.6142 32.4884 13.6142 43.1381C13.6142 43.796 13.8666 44.6612 12.7022 44.6477C10.8294 44.6477 10.5903 44.4764 10.5903 43.066C10.5903 31.7073 10.5903 20.3471 10.5903 8.98541C10.5903 6.55205 10.8693 6.28168 13.3309 6.28168L45.4071 6.32223Z" fill="#0E58EA"/>
<path id="Vector_3" d="M22.7612 39.8576C22.7612 38.2849 22.7966 38.2398 24.2798 38.2398C25.763 38.2398 25.7984 38.2804 25.8028 39.8666C25.8073 41.4528 25.7187 41.4708 24.2532 41.4708C22.7878 41.4708 22.7657 41.4708 22.7612 39.8576Z" fill="#0E58EA"/>
<path id="Vector_4" d="M59.1365 39.7584C59.1365 38.9788 58.9727 38.1857 60.2212 38.2173C62.0497 38.2623 62.1559 38.2804 62.1781 39.7719C62.2002 41.2635 62.0939 41.4618 60.9074 41.4708C59.194 41.4708 59.1586 41.4708 59.1365 39.7584Z" fill="#0E58EA"/>
<path id="Vector_5" d="M31.8326 39.853C31.8326 41.3221 31.6776 41.4843 30.2476 41.4798C28.9194 41.4798 28.8043 41.3401 28.8087 39.817C28.8087 38.393 28.9592 38.2443 30.345 38.2443C31.7308 38.2443 31.8326 38.3975 31.8326 39.853Z" fill="#0E58EA"/>
<path id="Vector_6" d="M68.2124 39.9252C68.2124 41.3266 68.0796 41.4708 66.7735 41.4798C65.3302 41.4798 65.1885 41.3311 65.193 39.7404C65.193 38.3885 65.3258 38.2443 66.6717 38.2443C68.0176 38.2443 68.2124 38.4111 68.2124 39.9252Z" fill="#0E58EA"/>
<path id="Vector_7" d="M37.8893 39.853C37.8893 41.277 37.6812 41.4843 36.2998 41.4798C35.0646 41.4798 34.8521 41.2455 34.8477 39.9116C34.8477 38.4696 35.0779 38.2353 36.5256 38.2443C37.7609 38.2533 37.8981 38.4156 37.8893 39.853Z" fill="#0E58EA"/>
<path id="Vector_8" d="M56.0814 39.9206C56.0814 41.295 55.922 41.4708 54.6514 41.4798C53.2833 41.4798 53.0221 41.2094 53.031 39.7404C53.031 38.4291 53.2302 38.2443 54.5451 38.2443C55.9265 38.2488 56.077 38.4111 56.0814 39.9206Z" fill="#0E58EA"/>
<path id="Vector_9" d="M65.4012 20.2915C64.6972 18.5657 63.6612 18.3584 62.426 19.7102C62.4005 19.7326 62.3782 19.7583 62.3596 19.7869C61.8194 20.5664 61.3192 20.5484 60.5886 19.922C56.241 16.2179 51.2469 14.2802 45.5356 14.3929C44.0034 14.3459 42.4706 14.4622 40.9621 14.7399C35.7952 15.8034 31.1093 18.5511 27.6136 22.5672C25.9622 24.4147 25.949 24.3697 27.804 25.9874C28.2777 26.402 28.5877 26.3659 28.9596 25.9243C29.4599 25.334 29.9513 24.7392 30.4781 24.1714C38.2172 15.7583 50.4588 15.907 57.8968 21.8282C59.2781 22.9322 59.2604 22.8916 58.1005 24.2525C57.5338 24.9194 57.0777 25.0411 56.3517 24.4778C54.3793 22.8759 52.0881 21.7298 49.6371 21.1189C47.1861 20.5081 44.634 20.4472 42.1575 20.9404C39.0997 21.524 36.2427 22.9042 33.8651 24.9465C33.7212 25.0357 33.5998 25.1579 33.5106 25.3034C33.4214 25.4489 33.3669 25.6136 33.3514 25.7844C33.3359 25.9552 33.3599 26.1273 33.4214 26.2869C33.4829 26.4466 33.5803 26.5894 33.7057 26.7039C33.9005 26.9382 34.1174 27.1545 34.2901 27.4024C34.755 28.0783 35.2287 28.1279 35.8485 27.5601C37.2354 26.2882 38.8645 25.3204 40.6345 24.7167C45.3851 23.0854 49.8124 23.8515 53.9653 26.5913C54.2929 26.8076 54.7622 27.0419 54.6161 27.4925C54.2904 28.2387 53.7659 28.8772 53.102 29.3355C52.6592 29.7006 52.2563 29.1373 51.8844 28.8849C48.0282 26.4065 44.0702 26.3119 40.0147 28.3216C39.7535 28.4523 39.355 28.5695 39.4214 28.9165C39.616 29.7783 40.0404 30.5688 40.6478 31.2011C41.0418 31.6517 41.5731 31.1471 42.0158 30.9578C43.269 30.3914 44.6373 30.1388 46.0061 30.2212C47.3748 30.3035 48.7043 30.7183 49.8833 31.4309C50.5164 31.7869 50.6226 32.1024 50.0559 32.6341C49.4582 33.1748 48.9031 33.7624 48.3957 34.3915C47.7936 35.1666 47.125 35.4099 46.2174 35.0134C45.8062 34.8585 45.3583 34.8349 44.9335 34.9458C43.012 35.3333 41.6218 36.4058 41.1127 38.3705C40.8284 39.2849 40.8203 40.2651 41.0894 41.1841C41.3586 42.1032 41.8926 42.9189 42.6224 43.5256C43.319 44.1435 44.1927 44.5162 45.1139 44.5884C46.0351 44.6607 46.9547 44.4286 47.736 43.9267C48.5757 43.4483 49.2434 42.7095 49.6416 41.8178C50.0398 40.9261 50.1477 39.9283 49.9497 38.9699C49.8217 38.5904 49.8043 38.1814 49.8993 37.7921C49.9943 37.4028 50.1979 37.0497 50.4854 36.7753C53.1905 34.0175 55.8469 31.2011 58.5033 28.3937C60.717 26.073 62.8776 23.7343 65.0647 21.4091C65.3702 21.1252 65.6093 20.7917 65.4012 20.2915ZM45.4072 41.4438C45.0312 41.3935 44.6859 41.2059 44.4357 40.9157C44.1856 40.6255 44.0477 40.2526 44.0477 39.8666C44.0477 39.4806 44.1856 39.1077 44.4357 38.8175C44.6859 38.5273 45.0312 38.3396 45.4072 38.2894C45.8074 38.2955 46.1904 38.4555 46.4795 38.7372C46.7685 39.0189 46.9422 39.4014 46.9656 39.808C46.9418 40.2256 46.7713 40.6205 46.4852 40.9208C46.1991 41.221 45.8165 41.4066 45.4072 41.4438Z" fill="#0E58EA"/>
</g>
<defs>
<clipPath id="clip0_546_1902">
<rect width="91" height="59" fill="white"/>
</clipPath>
</defs>
</svg>
